<?xml version="1.0" encoding="UTF-8"?>
<svg id="Layer_1" xmlns="http://www.w3.org/2000/svg" viewBox="0 0 452.42 80.82">
  <defs>
    <style>
      .cls-1 {
        fill: #fff;
      }
    </style>
  </defs>
  <path class="cls-1" d="M274.2,65.01h-.13v15.8h-6.45v-45.24h6.45v3.95h.13c1.84-2.37,5.07-4.94,10.34-4.94,8.56,0,15.08,6.72,15.08,17.78s-6.52,17.71-15.08,17.71c-5.27,0-8.49-2.37-10.34-5.07ZM283.49,64.75c6.32,0,9.35-5.8,9.35-12.38s-3.03-12.38-9.35-12.38c-5.8,0-9.35,4.74-9.35,12.38s3.56,12.38,9.35,12.38Z"/>
  <path class="cls-1" d="M302.76,60.47c0-7.51,5.66-9.75,14.03-11.33,5.27-.99,8.49-1.65,8.49-4.94,0-2.44-1.45-4.48-6.39-4.48-5.86,0-7.64,1.84-7.97,6.32h-6.58c.33-6.45,4.54-11.52,14.82-11.52,6.91,0,12.45,2.9,12.45,11.59v15.41c0,2.44.33,3.69,1.58,3.69.2,0,.4,0,.79-.07v3.95c-1.12.26-2.24.4-3.29.4-3.16,0-4.94-1.25-5.27-5.07h-.13c-2.24,3.49-6.06,5.66-11.52,5.66-6.72,0-11-3.88-11-9.61ZM315.2,64.88c5.8,0,10.08-2.96,10.08-8.82v-4.81c-1.05.99-3.95,1.71-7.38,2.44-5.93,1.19-8.36,2.83-8.36,6.32,0,3.16,1.65,4.87,5.66,4.87Z"/>
  <path class="cls-1" d="M338.65,59.68v-18.77h-4.87v-5.33h4.87v-10.8h6.45v10.8h6.45v5.33h-6.45v18.97c0,3.56.99,4.35,3.75,4.35,1.05,0,1.58-.07,2.77-.26v5.2c-1.71.33-2.7.4-4.15.4-5.47,0-8.82-2.11-8.82-9.88Z"/>
  <path class="cls-1" d="M367.27,52.3c0-10.54,6.32-17.78,16.59-17.78s15.93,6.72,15.93,17.12c0,.92,0,1.91-.07,2.44h-25.81c.13,5.6,3.42,10.8,10.08,10.8,5.93,0,8.17-3.82,8.82-6.06h6.52c-1.71,6.45-6.65,11.33-15.47,11.33-10.67,0-16.59-7.57-16.59-17.85ZM393.02,49.01c0-5.27-3.62-9.22-9.35-9.22-5.4,0-9.35,3.69-9.75,9.22h19.1Z"/>
  <path class="cls-1" d="M419.47,40.12c-5.53,0-9.09,3.36-9.09,8.43v20.61h-6.45v-33.58h6.45v4.21h.13c1.78-2.57,5.27-5.2,11.06-5.2,6.19,0,11.19,3.56,11.19,11.26v23.31h-6.52v-21.53c0-4.48-1.98-7.51-6.78-7.51Z"/>
  <path class="cls-1" d="M439.45,59.68v-18.77h-4.87v-5.33h4.87v-10.8h6.45v10.8h6.45v5.33h-6.45v18.97c0,3.56.99,4.35,3.75,4.35,1.05,0,1.58-.07,2.77-.26v5.2c-1.71.33-2.7.4-4.15.4-5.47,0-8.82-2.11-8.82-9.88Z"/>
  <path class="cls-1" d="M249.43,33.38c-8.28-2.49-17.35,3.15-20.7,12.64-.12.17-.24.35-.31.56-4.05,11-9.91,17.65-16.96,19.23-4.43.99-7.76-.09-10.16-3.3-.5-.67-.95-1.41-1.34-2.24,5.21-4.93,9.33-12.92,12.26-23.79,1.45-5.38,3.77-20.65.64-24.74-1.22-1.6-2.88-2.4-4.69-2.27-3.38.25-6.12,3.65-7.21,5.62-8.29,14.98-9.65,32.81-6.31,43.74-7.57,5.61-14.04,8.06-19.25,7.29-3.27-.48-5.96-2.24-8.24-5.37-.29-.39-.56-.84-.81-1.35,2.23-2.75,4.17-5.81,5.97-8.91,2.81-4.85,8.61-19.37,8.61-33.32,0-12.52-3.44-15.65-6.32-16.08-4.37-.65-8.65,4.88-11.73,15.16-4.52,15.12-5.06,32.39-1.75,42.27-4.44,4.79-9.08,7.06-14.88,7.59-4.86.44-9-1.49-11.76-5.44,4.76-4.53,11.41-13.22,11.09-20.91-.15-3.69-2.17-6.49-5.26-7.29-3.56-.93-7.51,1-9.84,4.78-4.15,6.75-4.74,15.36-1.73,22.32-5.06,3.26-11.71,7.05-16.32,6.54-.03,0-.05,0-.08,0-.33-.04-.65-.1-.95-.19-.02,0-.04,0-.06-.01-.31-.09-.61-.21-.89-.35-.02,0-.03-.01-.05-.02-.22-.11-.41-.26-.61-.4-.11-.08-.22-.14-.33-.23-2.14-1.92-2.79-6.07-1.88-12,.06-.39.14-.86.23-1.39.89-5.16,2.75-15.89-4.11-18.2-5.39-1.81-11.55,2.89-18.29,13.96-1.18,1.87-2.64,4.93-4.18,8.18-1.32,2.78-3,6.3-4.31,8.51.18-1.22.49-2.89,1.03-5.18,1.23-5.24,4.41-14.89,6.17-19.76.11-.31,10.62-31.45,6.11-36.75C88.33.02,86.5-.16,85.29.08c-4.04.8-6.23,7-9.76,17.88-1.18,3.63-2.39,7.38-3.74,10.88-5.85,15.17-9.06,21.3-13.65,28.57-1.13,1.79-7.06,10.61-12.95,8.38-2.48-.94-3.71-3.67-5.13-6.83-1.86-4.15-4.18-9.31-10.48-10.29-5.9-.91-9.34,4.51-12.39,9.28-2.32,3.65-4.73,7.42-7.77,8.09-1.69.37-3.64-.17-5.97-1.67-1.04-.67-2.44-.37-3.11.68-.67,1.05-.37,2.44.68,3.11,3.39,2.17,6.45,2.92,9.36,2.27,4.87-1.07,7.91-5.85,10.6-10.07,3.06-4.8,5.13-7.69,7.9-7.25,3.62.56,5.08,3.27,7.06,7.68,1.6,3.56,3.41,7.6,7.65,9.2,8.92,3.37,16.29-6.95,18.34-10.19,5.37-8.51,8.65-15.37,14.04-29.36,1.4-3.62,2.63-7.43,3.83-11.11,1.81-5.57,4.52-13.95,6.29-14.82.1.06.31.2.62.55,1.06,2.56-2.33,19.89-6.85,32.37-1.85,5.12-5.04,14.79-6.32,20.26-1.91,8.13-1.81,11.3.36,12.57.47.27.96.41,1.47.41,1,0,2.09-.53,3.23-1.59,1.78-1.64,3.79-5.72,6.67-11.76,1.48-3.12,2.88-6.06,3.94-7.74,7.72-12.67,11.93-12.44,13.03-12.07,3.21,1.08,1.69,9.86,1.12,13.17-.1.56-.18,1.06-.25,1.48-1.17,7.61-.05,13,3.33,16.03.05.05.11.08.16.12.04.03.07.07.1.1.22.18.45.35.68.5.1.07.2.13.3.19.29.18.59.35.89.5.07.04.15.07.23.1.33.15.66.28,1,.39.05.01.09.03.13.05.37.11.74.2,1.12.27.1.02.2.04.3.06.31.05.62.08.94.1,1.57.13,3.27-.03,5.07-.51.07-.02.14-.05.21-.08,4.46-1.17,9.18-3.84,13.39-6.54,3.69,5.1,9.32,7.68,15.69,7.1,7-.63,12.26-3.59,16.51-7.7.11.17.23.34.35.51,2.98,4.1,6.76,6.52,11.22,7.18.83.12,1.69.19,2.56.19,5.61,0,12.02-2.56,19.1-7.63.4.76.84,1.45,1.31,2.08,3.48,4.65,8.58,6.37,14.75,4.99,6.06-1.36,11.31-5.54,15.49-12.26,1.3,5.78,5.09,10.48,10.49,12.1,1.32.4,2.67.59,4,.59,7.33,0,14.48-5.7,17.05-14.25,3.03-10.11-1.47-20.42-10.04-23ZM132.37,56.47c-1.85-5.38-1.19-11.76,1.95-16.87,1.25-2.03,2.93-2.86,4.21-2.86.23,0,.45.03.65.08,1.55.4,1.85,2.13,1.89,3.12.22,5.35-4.66,12.37-8.71,16.53ZM164.62,54.2c-1.91-8.74-1.51-23.03,2.57-36.66,2.75-9.2,5.86-12,6.71-12,.02,0,.03,0,.05,0,.41.06,2.47,2.32,2.47,11.62,0,12.91-5.49,26.74-8,31.07-1.29,2.22-2.55,4.21-3.81,5.97ZM198.34,55.46c-2.34-10.46.12-26.55,6.56-38.19.92-1.66,2.64-3.24,3.61-3.31.02,0,.04,0,.06,0,.13,0,.37.05.72.52,1.2,1.72.66,13.2-1.4,20.84-2.38,8.83-5.64,15.69-9.54,20.15ZM255.17,55.08c-2.32,7.73-9.26,12.5-15.45,10.65-6.2-1.86-9.35-9.66-7.03-17.39,1.98-6.6,7.32-11.05,12.7-11.05.92,0,1.84.13,2.75.4,6.2,1.86,9.35,9.66,7.03,17.39Z"/>
  <g>
    <path class="cls-1" d="M356.58,35.58h6.45v33.58h-6.45v-33.58Z"/>
    <rect class="cls-1" x="356.58" y="25.88" width="6.45" height="5.45"/>
  </g>
</svg>