<svg id="Layer_1" data-name="Layer 1" xmlns="http://www.w3.org/2000/svg" viewBox="0 0 2585.721 987.779"><defs><style>.cls-1{fill:#fff;}.cls-2{fill:none;stroke:#fff;stroke-miterlimit:10;stroke-width:6px;}</style></defs><path class="cls-1" d="M834.621,355.151h78.41V661.969q-.225,42.188-17.9,72.657a119.63,119.63,0,0,1-49.43,46.662q-31.545,16.192-73.51,16.193-38.355,0-69.04-13.637a112.463,112.463,0,0,1-48.36-40.909q-17.9-27.058-17.9-67.329h78.62q.21,17.685,7.67,30.469a51.124,51.124,0,0,0,21.1,19.6q13.41,6.817,30.89,6.818,18.96,0,32.17-7.883,13.215-8.1,20.03-23.864,7.035-15.767,7.25-38.779Zm321.35,298.722V464.242h77.13V791.515h-74.79V733.347h-3.4q-11.085,27.486-36.44,44.958-25.14,17.471-62,17.471-32.175,0-56.89-14.275-24.51-14.488-38.35-41.975-13.86-27.7-13.85-66.9V464.242h77.13V660.691q0,31.108,17.04,49.432,17.055,18.324,44.75,18.324a70.711,70.711,0,0,0,33.02-8.31,67.137,67.137,0,0,0,26.21-24.716Q1155.971,678.8,1155.971,653.873Zm185.58-298.722V791.515h-77.13V355.151Zm31.31,436.364V464.242h77.13V791.515Zm38.78-373.722a44.963,44.963,0,0,1-31.53-12.145q-13.215-12.357-13.21-29.616,0-17.472,13.21-29.617a44.538,44.538,0,0,1,31.53-12.357q18.54,0,31.53,12.357,13.215,12.145,13.21,29.617,0,17.259-13.21,29.616Q1430.181,417.794,1411.641,417.793Zm278.26,236.08V464.242h77.13V791.515h-74.79V733.347h-3.41q-11.07,27.486-36.43,44.958-25.14,17.471-62,17.471-32.175,0-56.89-14.275-24.51-14.488-38.35-41.975-13.86-27.7-13.85-66.9V464.242h77.13V660.691q0,31.108,17.04,49.432,17.055,18.324,44.75,18.324a70.711,70.711,0,0,0,33.02-8.31,67.137,67.137,0,0,0,26.21-24.716Q1689.9,678.8,1689.9,653.873Zm367.11-103.125-70.31,7.67a56.547,56.547,0,0,0-10.44-20.028,51.9,51.9,0,0,0-19.6-15.128q-12.36-5.752-30.26-5.753-24.075,0-40.48,10.441-16.2,10.44-15.98,27.059-.225,14.275,10.44,23.225,10.86,8.949,35.79,14.7L1972,604.867q46.44,10.014,69.03,31.747,22.8,21.733,23.01,56.89-.21,30.894-18.11,54.545-17.685,23.438-49.22,36.648t-72.44,13.21q-60.09,0-96.73-25.142-36.66-25.355-43.68-70.526l75.21-7.244q5.115,22.16,21.73,33.452t43.26,11.292q27.48,0,44.1-11.292,16.83-11.293,16.83-27.912a29.077,29.077,0,0,0-10.86-23.225q-10.665-9.162-33.24-14.062l-55.83-11.719q-47.085-9.8-69.67-33.025-22.59-23.437-22.37-59.233-.21-30.256,16.4-52.415,16.845-22.373,46.67-34.517,30.045-12.358,69.24-12.358,57.54,0,90.56,24.5Q2049.131,508.987,2057.011,550.748Zm70.15,245.454a45.679,45.679,0,0,1-33.24-13.636,44.145,44.145,0,0,1-13.64-33.239,43.649,43.649,0,0,1,13.64-32.812,45.679,45.679,0,0,1,33.24-13.636q18.75,0,32.6,13.636,14.055,13.636,14.27,32.812a45.371,45.371,0,0,1-6.82,23.651,48.955,48.955,0,0,1-17.04,17.045A44.336,44.336,0,0,1,2127.161,796.2Zm172.68,1.918q-31.11,0-56.04-11.079a91.488,91.488,0,0,1-39.2-33.239q-14.28-21.946-14.28-54.119,0-27.7,10.23-45.81a79.153,79.153,0,0,1,27.91-28.977,140.867,140.867,0,0,1,39.85-16.407,323.757,323.757,0,0,1,46.23-8.309q28.77-2.983,46.67-5.327,17.9-2.557,25.99-7.67,8.31-5.328,8.31-16.407V569.5q0-24.077-14.28-37.287T2340.111,519q-28.335,0-44.96,12.358-16.395,12.357-22.15,29.19l-72.02-10.227q8.52-29.831,28.12-49.858,19.6-20.243,47.94-30.256,28.35-10.227,62.65-10.227a203.96,203.96,0,0,1,47.08,5.54,132.5,132.5,0,0,1,42.83,18.323q19.395,12.572,31.11,34.3,11.925,21.733,11.93,54.333V791.515h-74.15V746.558h-2.55a94.311,94.311,0,0,1-19.82,25.568q-12.57,11.718-31.75,18.963Q2325.411,798.119,2299.841,798.12Zm20.03-56.676q23.22,0,40.27-9.162,17.04-9.375,26.21-24.716a62.953,62.953,0,0,0,9.37-33.452V635.549q-3.615,2.984-12.36,5.54a174.842,174.842,0,0,1-19.17,4.474q-10.65,1.918-21.1,3.409t-18.11,2.557a134.683,134.683,0,0,0-30.89,7.671q-13.635,5.326-21.52,14.914-7.89,9.375-7.88,24.29,0,21.308,15.55,32.173T2319.871,741.444Zm182.33,50.071V464.242h77.13V791.515Zm38.78-373.722a45,45,0,0,1-31.54-12.145q-13.215-12.357-13.21-29.616,0-17.472,13.21-29.617a44.578,44.578,0,0,1,31.54-12.357q18.525,0,31.53,12.357,13.215,12.145,13.21,29.617,0,17.259-13.21,29.616Q2559.506,417.794,2540.981,417.793Z"/><path class="cls-2" d="M210.3,261.577c1.822,6.358,4.908,10.362,11.094,7.98,6.171-2.368,16.476-9.63,22.159-13.032,30.153-18.054,116.121,4.062,128.32,22.691"/><path class="cls-2" d="M254.057,280.35c5.008-8.1,14.394-12.773,23.852-13.821s18.988,1.148,27.943,4.377a123.558,123.558,0,0,1,20.925,9.817"/><path class="cls-2" d="M261.677,291.055a15.782,15.782,0,0,0,6.545,10.262,29.741,29.741,0,0,0,11.481,4.721A55.348,55.348,0,0,0,326.849,293.9c-7.305-5.095-14.912-9.917-23.221-13.147-8.31-3.214-17.452-4.779-26.221-3.186a22.98,22.98,0,0,0-10.779,4.607c-3.028,2.541-5.281,6.387-4.937,8.9Z"/><path class="cls-2" d="M124.359,295.3c-1.177,5.468,1.708,11.338,6.3,14.539s10.549,4.018,16.089,3.157,10.721-3.243,15.6-5.97a110.652,110.652,0,0,0,12.974-8.482c-9.084-8.252-21.915-11.553-34.186-10.907a26.873,26.873,0,0,0-10.089,2.152c-3.129,1.479-6.344,3.875-6.7,5.511Z"/><path class="cls-2" d="M178.537,286.62a54.69,54.69,0,0,0-43.687-10.692"/><path class="cls-2" d="M116.824,266.111c3.961-2.411,8.783-2.856,13.405-3.243,8.553-.7,17.193-1.421,25.675-.072,9.358,1.478,18.127,5.411,26.766,9.286a89.917,89.917,0,0,0,1.163-21.858"/><path class="cls-2" d="M182.354,280.478c6.832,11.553,1.809,26.063.46,39.424-.761,7.592-.259,15.271-.89,22.892a77.483,77.483,0,0,1-9.056,30.454c-4.421,8.166-10.477,15.974-11.252,25.245-.847,10.075,5.124,19.935,13.519,25.575s18.844,7.535,28.948,7.348"/><path class="cls-2" d="M205.059,424.629c1.967-3.244,5.784-4.851,9.487-5.712,2.956-.689,6.344-.947,8.783.847"/><path class="cls-2" d="M233.548,424.959c4.851,1.722,10.548-.546,13.677-4.621s3.947-9.6,3.129-14.682-3.129-9.788-5.741-14.223"/><path class="cls-2" d="M337.354,303.325c-4.176,5.8-15.485,11.683-19.963,11.525"/><path class="cls-2" d="M176.241,466.348a15.794,15.794,0,0,1,12.859-10c6.214-.66,12.385,2.44,18.585,1.679,3.187-.387,6.143-1.794,9.243-2.626,12.759-3.473,25.963,2.569,37.789,8.453"/><path class="cls-2" d="M169.624,470.683a86.79,86.79,0,0,1,25.2.976c5.411,1,10.807,2.54,16.3,2.224,4.937-.272,9.659-2.037,14.538-2.769,6.5-.991,13.118-.158,19.691.272a163.786,163.786,0,0,0,36.813-1.736"/><path class="cls-2" d="M176.068,486.627c24.815,15.156,58.068,15.3,83,.33.588-.359,1.363-.7,1.909-.287s-.373,1.507-.646.876"/><path class="cls-2" d="M457.135,323.648c9.673-6.96,9.544-22.059,18.17-30.268a26.4,26.4,0,0,1,12.141-6.085c8.235-2.009,18.125-1.033,23.425,5.6,4.89,6.128,4.29,14.94,2.41,22.561a88.326,88.326,0,0,1-31.963,48.682"/><path class="cls-2" d="M455.183,329.173a10.593,10.593,0,0,1,3.66,8.252,24.9,24.9,0,0,1-2.053,9.056,78.977,78.977,0,0,1-6.214,12.544"/><path class="cls-2" d="M459.517,355.983a15.426,15.426,0,0,1,11.539-4.277,7.961,7.961,0,0,1,4.751,1.636,4.168,4.168,0,0,1,1.349,4.579"/><path class="cls-2" d="M96.616,289.592c3.129-11.366-1.062-23.278-2.5-34.975-1.708-13.907.531-27.957,2.756-41.778,1.335-8.267,3.157-17.4,9.9-22.375,3.645-2.7,8.195-3.731,12.443-5.281C133.687,179.916,145,168.635,155.8,157.67c26.809,5.727,56.445-4.879,73.567-25.919a18.91,18.91,0,0,0,16.663,2.353,132.787,132.787,0,0,0,72.419,15.773,31.323,31.323,0,0,1-16.318-25.905,82.466,82.466,0,0,0,58.312,28.388c2.726,15.945,15.9,27.685,24.139,41.606,11.6,19.59,13.4,43.8,25.044,63.363,4.737,7.951,10.965,14.9,16.261,22.49,1.363,1.937,2.7,4.061,2.784,6.429a13,13,0,0,1-1.291,5.253c-8.1,20.322-17.481,42.152-36.511,52.93,17.265,3.2,37.156,3.559,50-8.41,13.19-12.3,10.09-24.327,17.94-40.559,5.612-11.6,1.751-16.461,14.381-27.555,6.142,3.215,24-1.378,29.016,5.554,3.38-5.382,5.83-29.981,6.73-38.32,1.83-16.748-3.12-46.485-5.32-60.521-2.08-13.333-6.56-26.178-11.51-38.722-3.517-8.912-7.349-17.839-13.319-25.331-3.559-4.477-7.836-8.367-11.252-12.959-2.971-4.005-5.253-8.454-7.908-12.673A82.234,82.234,0,0,0,410.2,49.1c-2.425-9.257-10.964-15.758-19.92-19.116s-18.629-4.263-27.9-6.631c-10.936-2.8-21.269-7.606-32.119-10.721s-22.777-4.42-33.254-.229c-1.751-3.2-5.712-4.32-9.271-5.052a212.852,212.852,0,0,0-86.857.258c-13.175,2.8-26.279,6.946-37.43,14.481-8.927,6.028-16.361,14.065-22.633,22.82-5.611,7.821-10.419,16.418-12.9,24.986C118.8,75.305,111.6,83.385,104.84,91.551c-7.018,8.482-13.792,17.265-18.772,27.082-8.052,15.873-11.108,33.756-14.051,51.308-2.511,14.94-5.023,30.153-3.071,45.18C72.462,242.116,89.885,265.338,96.616,289.592Z"/><path class="cls-2" d="M96.918,289.419c6.487,25.963,2.325,53.877,10.29,79.423,3.43,10.994,9,21.2,13.189,31.933,6.617,16.993,9.674,35.133,14.309,52.772a299.852,299.852,0,0,0,33.914,79.71c4.693,7.707,9.917,15.385,17.322,20.523,7.736,5.368,17.194,7.535,26.422,9.472,19.016,4,38.492,7.564,57.781,5.167,12.342-1.536,24.254-5.482,35.779-10.147,33.167-13.433,64.11-33.368,87.4-60.536s38.52-61.856,39.223-97.635c10.161,7,21.657,3.028,32.306-3.187,12.486-7.305,17.969-10.319,27.645-21.068,5.67-6.286,12-11.668,18.17-21.054A146.064,146.064,0,0,0,526.3,321.8c3.4-11.381,3.99-22.159-.31-33.225s-17.1-18.643-23.75-15.1v.144"/><path class="cls-2" d="M161.1,520.368A805.287,805.287,0,0,0,151.426,630.4"/><path class="cls-2" d="M155.861,562.018a474.271,474.271,0,0,1-145.2,114.355c-2.842,1.45-5.927,3.1-7.118,6.057-.948,2.353-.474,5.023.028,7.52C16.82,755.811,35.994,823.494,81.2,873.18c25.547,28.084,59.374,50.5,74.027,85.534,2.7,6.45,4.751,13.34,9.142,18.79s12.027,9.08,18.457,6.34c2.9-1.23,5.152-3.57,7.664-5.48,20.566-15.56,49.844,1.08,75.476-1.72,10.334-1.14,19.992-5.48,29.924-8.56,39.066-12.02,81.734-3.77,121.617-12.71,9.817-2.21,19.648-5.58,27.4-12.01,6.315-5.24,10.893-12.23,15.371-19.11,36.093-55.322,65.383-90.958,73.263-156.546,2.84-23.608,9.39-48.064-7.68-89.139-13.24-31.89-40.568-42.41-71.152-58.426-13.576-7.1-36.87-20.681-48.509-36.181,5.7-22.762,4.808-21.715,8.87-44.62,5.008-28.173,14.667-105.056,17.365-136.257"/><path class="cls-2" d="M453.777,403.474c1.679,5.454-3.846,10.434-4.822,16.074a41.712,41.712,0,0,0-.273,4.65c-.244,4.607-1.952,9-3.43,13.362-2.253,6.673-4.033,13.562-7.147,19.877s-7.779,12.185-14.209,15.084"/><path class="cls-2" d="M423.293,496.545A33.907,33.907,0,0,0,433.828,464.7"/><path class="cls-2" d="M429.723,456.445a44.54,44.54,0,0,0,14.6-16.791"/><path class="cls-2" d="M435.205,430.527a45.4,45.4,0,0,0,14.84-12.629"/><path class="cls-2" d="M390.04,524.058c-16.72,30.483-25.934,64.411-35,97.98.1-.689.215-1.378.316-2.067"/><path class="cls-2" d="M260.242,597.382a27.938,27.938,0,0,0,11.022,14.926,14.459,14.459,0,0,0,3.99,2c4.966,1.45,10.118-1.163,14.625-3.7"/><path class="cls-2" d="M213.656,622.368a193.135,193.135,0,0,1,23.221,45.955c1.407,4.047,2.67,8.152,4.292,12.113a74.018,74.018,0,0,0,36.453,38.506"/><path class="cls-2" d="M90.216,129.023a58.914,58.914,0,0,0,1.966,32.722c3.889,10.362,11.395,19.5,21.226,24.585"/><path class="cls-2" d="M131.047,178.766c-19.232-15.471-26.178-44.419-16.06-66.937,6.157-13.706,17.552-24.412,29.823-33.11s25.632-15.744,37.846-24.513"/><path class="cls-2" d="M196.032,10.462A56.742,56.742,0,0,0,180.919,47.39c-.115,4.793.8,10.319,4.909,12.773"/><path class="cls-2" d="M155.847,158.788A291.6,291.6,0,0,0,183.976,76.9c1.78-9.716,3.086-19.59,6.43-28.875,3.329-9.3,8.97-18.156,17.466-23.179,9.716-5.755,21.973-5.769,32.837-2.683"/><path class="cls-2" d="M137.4,174.561c2.44-1.75,2.1-5.582.574-8.166s-3.918-4.621-5.138-7.362c-2.525-5.669.7-12.257,4.751-16.95,7.047-8.166,16.562-13.735,24.972-20.48s16.189-15.572,17.366-26.307"/><path class="cls-2" d="M129.927,65.171a21.048,21.048,0,0,0-.9,11.367,13.776,13.776,0,0,0,6.5,9.128"/><path class="cls-2" d="M234.926,91.794a88.9,88.9,0,0,0,17.423,31.072,70.51,70.51,0,0,0,18.471,15.471c13.691,7.722,29.794,9.616,45.409,11.353"/><path class="cls-2" d="M282.559,70.181c2.526,24.341,7.908,49.743,24.183,68.028"/><path class="cls-2" d="M331.212,98.109a71.793,71.793,0,0,0,34.717,47.619c6.143,3.445,12.759,5.956,19.059,9.114a103.158,103.158,0,0,1,41.994,39.037,44.189,44.189,0,0,0,5.166-33.928"/><path class="cls-2" d="M296.05,33.87c19.03-4.952,38.922,2.138,57.106,9.587s37.4,15.528,56.833,12.529"/><path class="cls-2" d="M469.535,104.267a94.853,94.853,0,0,0,16.792,37.315"/><path class="cls-2" d="M435.765,210.8a147.7,147.7,0,0,1,6.243,74.113"/><path class="cls-2" d="M441.42,186.545c9.831,12.156,11.926,28.675,12.816,44.276a78,78,0,0,0,1.521-66.1"/><path class="cls-2" d="M472.09,187.134c4.018,29.264,3.157,60.335-10.334,86.628"/><path class="cls-2" d="M472.879,267.734c11.51-10.62,21.5-23.393,26.352-38.291a123.618,123.618,0,0,0,3.53-14.624c1.49-7.664,2.88-15.385,3.03-23.193"/></svg>