<svg width="398" height="77" viewBox="0 0 398 77" fill="none" xmlns="http://www.w3.org/2000/svg">
<path d="M125.534 23.2701H129.769V45.6231H142.553V49.5447H125.534V23.2701ZM153.015 23.2701H157.25V49.5447H153.015V23.2701ZM181.372 49.9368C179.463 49.9368 177.711 49.6231 176.117 48.9956C174.522 48.342 173.149 47.427 171.999 46.2505C170.875 45.0479 169.999 43.6231 169.372 41.976C168.744 40.3028 168.43 38.4466 168.43 36.4074C168.43 34.5251 168.744 32.7734 169.372 31.1525C170.025 29.5054 170.927 28.0675 172.077 26.8388C173.254 25.61 174.653 24.6427 176.274 23.9368C177.921 23.2309 179.751 22.878 181.764 22.878C184.77 22.878 187.345 23.6231 189.489 25.1133C191.633 26.5773 193.123 28.6427 193.96 31.3094H188.901C188.326 29.9499 187.385 28.9041 186.077 28.1721C184.796 27.4139 183.319 27.0349 181.646 27.0349C180.287 27.0349 179.058 27.2832 177.96 27.78C176.888 28.2505 175.973 28.9041 175.215 29.7407C174.457 30.5773 173.881 31.5708 173.489 32.7211C173.097 33.8453 172.901 35.061 172.901 36.3682C172.901 37.8061 173.123 39.1002 173.568 40.2505C174.012 41.4009 174.64 42.3943 175.45 43.2309C176.26 44.0414 177.241 44.6688 178.391 45.1133C179.542 45.5577 180.836 45.78 182.274 45.78C184.051 45.78 185.607 45.4532 186.94 44.7996C188.274 44.1198 189.228 43.2309 189.803 42.1329V38.9956H183.097V35.5839H194.038V49.5447H189.803V46.878C188.81 47.8192 187.607 48.5643 186.195 49.1133C184.783 49.6623 183.176 49.9368 181.372 49.9368ZM206.332 23.2701H210.567V35.0741H224.254V23.2701H228.489V49.5447H224.254V38.9956H210.567V49.5447H206.332V23.2701ZM247.356 27.1133H238.258V23.2701H260.689V27.1133H251.591V49.5447H247.356V27.1133ZM286.134 23.2701H290.369V45.6231H303.154V49.5447H286.134V23.2701ZM320.596 23.2701H325.929L335.89 49.5447H331.459L329.42 44.1721H317.106L315.067 49.5447H310.635L320.596 23.2701ZM328.047 40.4858L323.263 27.7407L318.439 40.4858H328.047ZM356.474 23.2701C357.86 23.2701 359.101 23.4401 360.199 23.78C361.298 24.1198 362.239 24.6035 363.023 25.2309C363.807 25.8584 364.409 26.6166 364.827 27.5054C365.245 28.3943 365.454 29.3878 365.454 30.4858C365.454 31.8976 365.128 33.0741 364.474 34.0152C363.82 34.9303 362.892 35.6492 361.69 36.1721C363.232 36.6166 364.435 37.3355 365.298 38.329C366.186 39.3224 366.631 40.6296 366.631 42.2505C366.631 43.3747 366.422 44.3943 366.003 45.3094C365.585 46.1983 364.984 46.9564 364.2 47.5839C363.415 48.2113 362.461 48.695 361.337 49.0349C360.239 49.3747 359.01 49.5447 357.65 49.5447H345.847V23.2701H356.474ZM356.003 34.7996C357.546 34.7996 358.762 34.4597 359.65 33.78C360.539 33.0741 360.984 32.1198 360.984 30.9172C360.984 29.6884 360.539 28.7603 359.65 28.1329C358.762 27.4793 357.546 27.1525 356.003 27.1525H350.082V34.7996H356.003ZM357.101 45.6623C358.67 45.6623 359.899 45.3224 360.788 44.6427C361.703 43.963 362.16 42.9956 362.16 41.7407C362.16 40.4858 361.703 39.5316 360.788 38.878C359.899 38.2244 358.657 37.8976 357.062 37.8976H350.082V45.6623H357.101ZM376.984 30.6035C376.984 28.146 377.833 26.2505 379.533 24.9172C381.232 23.5577 383.624 22.878 386.709 22.878C389.82 22.878 392.226 23.61 393.925 25.0741C395.65 26.512 396.552 28.4597 396.631 30.9172H392.082C392.056 30.3682 391.925 29.8322 391.69 29.3094C391.481 28.7865 391.154 28.329 390.709 27.9368C390.265 27.5447 389.69 27.2309 388.984 26.9956C388.304 26.7603 387.481 26.6427 386.513 26.6427C384.945 26.6427 383.69 26.9826 382.749 27.6623C381.833 28.342 381.376 29.2832 381.376 30.4858C381.376 31.2179 381.546 31.8322 381.886 32.329C382.226 32.7996 382.683 33.2048 383.258 33.5447C383.86 33.8584 384.539 34.1198 385.298 34.329C386.056 34.5381 386.853 34.7342 387.69 34.9172C388.788 35.1525 389.899 35.4009 391.023 35.6623C392.147 35.9237 393.167 36.3159 394.082 36.8388C394.997 37.3617 395.742 38.0675 396.317 38.9564C396.892 39.8192 397.18 40.9564 397.18 42.3682C397.18 44.7473 396.343 46.6035 394.67 47.9368C393.023 49.2701 390.566 49.9368 387.298 49.9368C383.873 49.9368 381.206 49.2179 379.298 47.78C377.389 46.3159 376.435 44.342 376.435 41.8584H380.984C381.193 43.244 381.833 44.3159 382.905 45.0741C383.977 45.8061 385.428 46.1721 387.258 46.1721C388.958 46.1721 390.291 45.8715 391.258 45.2702C392.226 44.6427 392.709 43.8061 392.709 42.7603C392.709 42.0283 392.526 41.427 392.16 40.9564C391.82 40.4858 391.35 40.1068 390.749 39.8192C390.173 39.5054 389.494 39.2571 388.709 39.0741C387.951 38.8649 387.154 38.6819 386.317 38.5251C385.219 38.3159 384.121 38.0675 383.023 37.78C381.925 37.4924 380.918 37.0741 380.003 36.5251C379.114 35.9499 378.383 35.2048 377.807 34.2898C377.258 33.3486 376.984 32.1198 376.984 30.6035Z" fill="white"/>
<path d="M10.0107 17.2323L21.2308 18.1098L10.5395 30.0399L0.364216 28.4479L10.0107 17.2323Z" fill="white"/>
<path d="M22.4978 18.2279L34.9193 19.1567L23.1589 31.9642L11.9267 30.5711L22.4978 18.2279Z" fill="white"/>
<path d="M36.1791 19.7205L62.3312 53.3427L100.932 0.913311L107 11.315L62.2266 76.8778L24.0439 33.1692L36.1791 19.7205Z" fill="white"/>
<path d="M11.9826 31.9496L22.3364 33.3012L60.7194 77L49.4839 76.8501L11.9826 31.9496Z" fill="white"/>
<path d="M10.3181 31.6644L47.6036 76.8208L37.3139 76.8501L0 29.9225L10.3181 31.6644Z" fill="white"/>
<path d="M73.1287 0L84.7869 0.108359L53.788 40.3225L48.1163 32.6543L73.1287 0Z" fill="white"/>
<path d="M86.4068 0H100.008L62.2266 51.9332L54.4547 41.0908L86.4068 0Z" fill="white"/>
</svg>
