<svg width="1962" height="360" viewBox="0 0 1962 360" fill="none" xmlns="http://www.w3.org/2000/svg">
<path d="M45.2229 301.095C73.3065 269.696 88.833 229.048 88.833 186.923C88.833 144.798 73.3065 104.15 45.2229 72.7515C17.2498 104.204 1.79736 144.831 1.79736 186.923C1.79736 229.015 17.2498 269.642 45.2229 301.095Z" fill="#ffffff"/>
<path d="M304.341 301.095C332.425 269.696 347.951 229.048 347.951 186.923C347.951 144.798 332.425 104.15 304.341 72.7515C276.368 104.204 260.916 144.831 260.916 186.923C260.916 229.015 276.368 269.642 304.341 301.095Z" fill="#ffffff"/>
<path d="M60.7028 57.2727C92.1013 85.3563 132.749 100.883 174.874 100.883C217 100.883 257.647 85.3563 289.046 57.2727C257.594 29.2996 216.966 13.8472 174.874 13.8472C132.782 13.8472 92.1551 29.2996 60.7028 57.2727Z" fill="#ffffff"/>
<path d="M60.7034 316.39C92.1019 344.473 132.749 360 174.875 360C217 360 257.648 344.473 289.046 316.39C257.594 288.417 216.967 272.964 174.875 272.964C132.783 272.964 92.1557 288.417 60.7034 316.39Z" fill="#ffffff"/>
<path d="M559.059 285.208V176.931C559.059 151.431 575.929 132.992 599.859 132.992C622.613 132.992 637.913 150.254 637.913 174.185V285.208H692.836V162.023C692.836 116.515 663.805 84.3462 619.082 84.3462C592.013 84.3462 570.044 95.7231 559.059 114.946V87.4846H504.136V285.208H559.059Z" fill="#ffffff"/>
<path d="M864.716 87.4846V195.762C864.716 220.869 847.847 239.7 823.916 239.7C801.554 239.7 785.862 222.438 785.862 198.508V87.4846H731.331V210.669C731.331 255.785 760.362 288.346 804.693 288.346C831.762 288.346 853.731 276.577 864.716 257.746V285.208H919.639V87.4846H864.716Z" fill="#ffffff"/>
<path d="M1014.58 285.208V173.008C1014.58 147.508 1029.1 130.638 1051.85 130.638C1073.03 130.638 1086.37 147.508 1086.37 173.008V285.208H1141.3V173.008C1141.3 147.508 1155.81 130.638 1178.57 130.638C1199.75 130.638 1213.48 147.508 1213.48 173.008V285.208H1268.01V155.746C1268.01 116.123 1240.16 84.3462 1197 84.3462C1165.23 84.3462 1140.51 101.215 1131.1 120.438C1121.68 96.9 1101.67 84.3462 1070.68 84.3462C1044 84.3462 1025.17 97.2923 1014.58 115.338V87.4846H959.658V285.208H1014.58Z" fill="#ffffff"/>
<path d="M1440.11 218.123C1435.8 234.992 1421.28 243.623 1399.31 243.623C1371.85 243.623 1354.2 226.362 1350.28 198.508H1492.29C1492.68 194.192 1493.08 188.308 1493.08 180.854C1493.08 135.738 1465.22 84.3462 1395.39 84.3462C1328.31 84.3462 1297.71 135.738 1297.71 185.954C1297.71 235.777 1332.23 288.346 1399.31 288.346C1447.96 288.346 1485.62 260.885 1493.47 218.123H1440.11ZM1395.39 124.362C1421.68 124.362 1436.98 142.015 1438.55 163.985H1351.06C1355.77 136.523 1370.68 124.362 1395.39 124.362Z" fill="#ffffff"/>
<path d="M1649.93 87.4846H1627.57C1603.64 87.4846 1588.73 95.7231 1578.14 120.438V87.4846H1523.22V285.208H1578.14V189.092C1578.14 155.354 1590.3 132.992 1617.37 132.992H1649.93V87.4846Z" fill="#ffffff"/>
<path d="M1672.96 58.0615H1732.98V0H1672.96V58.0615ZM1730.24 285.208V87.4846H1675.31V285.208H1730.24Z" fill="#ffffff"/>
<path d="M1862.12 288.346C1913.52 288.346 1954.32 255.392 1960.2 211.454H1904.49C1900.57 229.108 1884.49 241.269 1864.48 241.269C1834.66 241.269 1817.01 218.515 1817.01 186.346C1817.01 154.177 1834.27 131.031 1863.69 131.031C1883.7 131.031 1900.57 143.977 1903.71 161.631H1958.63C1955.1 115.731 1913.91 84.3462 1862.12 84.3462C1800.92 84.3462 1760.12 128.677 1760.12 186.346C1760.12 244.015 1800.92 288.346 1862.12 288.346Z" fill="#ffffff"/>
</svg>
