<svg xmlns="http://www.w3.org/2000/svg" viewBox="0 0 567.912 118"><defs><style>.cls-1{fill:#fff;}</style></defs><g id="Layer_2" data-name="Layer 2"><g id="Layer_1-2" data-name="Layer 1"><path class="cls-1" d="M22.265,74.254H0v41.5H22.265Z"/><path class="cls-1" d="M82.061,74.579h22.265c0-15.266,12.723-22.42,22.265-21.624V30.532c-17.018,0-23.061,16.06-23.061,14.629V32.6H82.061Z"/><path class="cls-1" d="M104.326,74.577H82.061v41.184h22.265Z"/><path class="cls-1" d="M173.188,95.569a21.388,21.388,0,1,1,0-42.775l.158-22.262a43.649,43.649,0,1,0,0,87.3Z"/><path class="cls-1" d="M194.5,74.1a21.345,21.345,0,0,1-21.312,21.467l.159,22.262A43.64,43.64,0,0,0,216.764,74.1Z"/><path class="cls-1" d="M173.35,30.532l-.159,22.262A21.312,21.312,0,0,1,194.5,74.1h22.265A43.61,43.61,0,0,0,173.35,30.532Z"/><path class="cls-1" d="M378.979,74.577H356.714v41.184h22.265Z"/><path class="cls-1" d="M378.979,32.6H356.714V74.579h22.265Z"/><path class="cls-1" d="M354.964,12.4a12.564,12.564,0,1,0,25.126,0,12.564,12.564,0,0,0-25.126,0Z"/><path class="cls-1" d="M542.785,105.267a12.565,12.565,0,1,0,12.563-12.4A12.525,12.525,0,0,0,542.785,105.267Z"/><path class="cls-1" d="M498.89,30.532c-24.333,0-42.3,20.99-42.3,43.569a44.063,44.063,0,0,0,.612,7.314h82.88V74.1C540.08,50.092,523.7,30.532,498.89,30.532ZM479.33,65.516a19.948,19.948,0,0,1,38.964-.16Z"/><path class="cls-1" d="M500.481,117.829A43.41,43.41,0,0,0,534.2,101.61L518.927,89.525c-3.975,5.724-10.5,9.222-18.767,9.222-12.086,0-19.4-7.315-21.628-17.332H457.2A43.772,43.772,0,0,0,500.481,117.829Z"/><path class="cls-1" d="M411.274,55.229c-.007-.122-.011-.243-.011-.367,0-4.135,3.18-6.52,8.43-6.52,6.043,0,11.609,2.864,16.38,8.745l13.2-13.038c-3.021-6.679-14.312-13.515-28.785-13.515-16.977,0-30,9.181-30.055,24.7h20.841Z"/><path class="cls-1" d="M419.532,100.018a23.97,23.97,0,0,1-19.083-9.063l-12.405,12.4a37.377,37.377,0,0,0,30.534,14.629c18.925,0,32.284-11.608,32.284-25.123H429.7C429.521,97.435,425.438,100.018,419.532,100.018Z"/><path class="cls-1" d="M411.275,55.227H390.432c0,.036,0,.073,0,.109,0,29.416,39.28,23.853,39.28,37.21,0,.107,0,.211-.008.318h21.159C450.863,60.872,411.968,68.708,411.275,55.227Z"/><path class="cls-1" d="M308.526,30.532a35.223,35.223,0,0,1,35.305,35.3v49.93H321.566V65.835a13.12,13.12,0,0,0-26.24,0v8.744H273.061V65.835A35.262,35.262,0,0,1,308.526,30.532Z"/><path class="cls-1" d="M295.329,74.577H273.063v41.184h22.266Z"/><path class="cls-1" d="M259.863,30.532a35.223,35.223,0,0,0-35.305,35.3v49.93h22.265V65.835a13.12,13.12,0,0,1,26.24,0v8.744h22.265V65.835A35.26,35.26,0,0,0,259.863,30.532Z"/><path class="cls-1" d="M35.624,4.451H22.265V25.918H34.989a13.436,13.436,0,0,1,0,26.872H0V74.256H35.624a34.9,34.9,0,0,0,0-69.805Z"/><path class="cls-1" d="M22.265,4.451H0V52.79H22.265Z"/></g></g></svg>