<svg width="231" height="93" viewBox="0 0 231 93" fill="none" xmlns="http://www.w3.org/2000/svg">
<path d="M119.771 2.24805C124.175 2.38405 129.068 2.29766 133.511 2.31641L133.527 90.6836C128.985 90.7756 124.276 90.7286 119.721 90.7441C119.702 87.6834 119.713 84.622 119.754 81.5615C116.822 85.7797 112.629 88.9612 107.777 90.6494C99.8069 93.4446 91.7683 92.5404 84.2495 88.9521C80.8512 87.1087 77.8708 84.5824 75.4966 81.5312C64.8489 67.8573 66.1473 42.2812 80.5962 31.6396C92.8885 22.5865 110.366 24.5548 119.755 36.79C119.557 33.1318 119.706 28.1571 119.708 24.4209C119.689 17.0299 119.71 9.6388 119.771 2.24805ZM98.9185 39.1123C88.1844 39.8074 81.6422 45.981 80.6607 56.8672C79.4902 69.8521 87.2541 79.6144 100.718 79.252C108.806 78.2457 114.73 74.6729 117.237 66.499C121.279 53.3165 114.156 38.3891 98.9185 39.1123Z" fill="black"/>
<path d="M31.1162 26.1123C52.406 26.2441 62.4911 40.2228 62.5166 60.5488C62.5176 61.4542 62.531 62.3855 62.5322 63.2939C51.8315 63.4227 41.0409 63.2385 30.335 63.3145C24.8696 63.3534 19.2337 63.1944 13.7881 63.4541C14.0233 64.5163 14.2913 65.571 14.5908 66.6172C18.8018 80.9334 36.3714 82.6238 47.2969 75.0918C48.0207 74.5925 51.6122 71.6101 51.8896 71.5264L52.2168 71.8779C54.2438 75.3714 56.2923 78.8524 58.3623 82.3203C51.2078 88.5328 44.3601 91.781 34.7324 92.2275C25.8122 92.5823 16.837 90.2585 10.0957 84.1885C-3.13819 72.2719 -3.11927 48.4564 8.72949 35.6055C14.8337 28.9848 22.2671 26.4831 31.1162 26.1123ZM40.4893 40.4688C37.5303 38.4665 32.3695 37.7866 28.9385 38.3408C19.6552 39.4253 16.2013 44.5454 13.9883 52.9629L33.1572 52.9639L47.7178 52.9434C46.483 47.5542 45.4917 43.8542 40.4893 40.4688Z" fill="black"/>
<path d="M202.895 26.1123C206.376 26.1458 209.424 26.1867 212.872 26.8779C232.58 30.8285 230.499 48.6087 230.506 64.2021L230.518 90.6826C226.001 90.7759 221.32 90.7322 216.79 90.75L216.789 81.832C209.376 94.3575 188.103 96.1118 179.161 84.3926C177.693 82.4696 176.892 80.5856 176.133 78.3164C175.167 74.6709 175.069 69.255 176.449 65.6787C181.42 52.3353 196.042 52.7069 208.082 51.6162C213.552 51.1205 219.478 51.6669 215.749 42.9209C214.929 40.9972 211.742 39.3251 209.66 38.8799C201.588 37.1537 190.55 38.9376 188.241 48.3135C185.56 46.241 180.28 43.1284 177.253 41.2236C181.381 29.5315 191.539 26.5786 202.895 26.1123ZM216.326 61.6367C209.541 62.4592 201.952 63.0204 195.344 64.5752C189.215 66.018 187.408 73.8883 192.356 78.1348C199.422 82.6193 210.203 79.6483 214.633 72.6855C216.53 69.7018 217.013 65.458 216.768 61.9834L216.486 61.6484L216.326 61.6367Z" fill="black"/>
<path d="M149.305 27.5234L162.866 27.5244C163.076 34.7682 162.929 42.6367 162.929 49.9182L162.926 90.7122L149.308 90.7157L149.305 27.5234Z" fill="black"/>
<path d="M154.171 0.166552C159.416 -0.814698 164.463 2.6403 165.447 7.8843C166.43 13.1286 162.978 18.1775 157.734 19.1638C152.487 20.1508 147.434 16.6956 146.45 11.4478C145.465 6.20005 148.923 1.1483 154.171 0.166552Z" fill="black"/>
</svg>
