<?xml version="1.0" encoding="UTF-8" standalone="no"?>
<svg
   width="1710"
   height="256"
   viewBox="0 0 1710 256"
   fill="none"
   version="1.1"
   id="svg10"
   sodipodi:docname="mono_lockup_white.svg"
   inkscape:version="1.4 (e7c3feb1, 2024-10-09)"
   inkscape:export-filename="color_lockup_white_960x144.png"
   inkscape:export-xdpi="53.894737"
   inkscape:export-ydpi="53.894737"
   xmlns:inkscape="http://www.inkscape.org/namespaces/inkscape"
   xmlns:sodipodi="http://sodipodi.sourceforge.net/DTD/sodipodi-0.dtd"
   xmlns="http://www.w3.org/2000/svg"
   xmlns:svg="http://www.w3.org/2000/svg">
  <defs
     id="defs10" />
  <sodipodi:namedview
     id="namedview10"
     pagecolor="#ffffff"
     bordercolor="#cccccc"
     borderopacity="1"
     inkscape:showpageshadow="0"
     inkscape:pageopacity="1"
     inkscape:pagecheckerboard="0"
     inkscape:deskcolor="#d1d1d1"
     inkscape:zoom="0.46330403"
     inkscape:cx="808.3245"
     inkscape:cy="321.60307"
     inkscape:window-width="1712"
     inkscape:window-height="1371"
     inkscape:window-x="7"
     inkscape:window-y="33"
     inkscape:window-maximized="0"
     inkscape:current-layer="svg10"
     inkscape:export-bgcolor="#ffffff00" />
  <path
     d="M472.22 0.05H592.21C593.63 0.05 594.74 1.16 594.74 2.58V38.71C594.74 40.13 593.63 41.24 592.21 41.24H486.64C479.65 41.24 473.98 46.91 473.98 53.9V103.04C473.98 104.46 475.09 105.57 476.51 105.57H573.38C574.8 105.57 575.91 106.68 575.91 108.1V144.23C575.91 145.65 574.8 146.76 573.38 146.76H476.51C475.09 146.76 473.98 147.87 473.98 149.29V250.51C473.98 251.92 472.87 253.04 471.45 253.04H429.14C427.72 253.04 426.61 251.93 426.61 250.51V45.54C426.61 20.38 447.01 0 472.15 0L472.2 0.05H472.22Z"
     fill="#111111"
     id="path1"
     style="fill:#ffffff" />
  <path
     d="M624.45 0.0600586H667.11C668.52 0.0600586 669.64 1.17006 669.64 2.59006V39.8301C669.64 41.2501 668.53 42.3601 667.11 42.3601H624.45C623.03 42.3601 621.92 41.2501 621.92 39.8301V2.59006C621.92 1.17006 623.03 0.0600586 624.45 0.0600586ZM625.92 70.9101H665.35C666.77 70.9101 667.88 72.0201 667.88 73.4401V250.57C667.88 251.98 666.77 253.1 665.35 253.1H625.92C624.51 253.1 623.39 251.99 623.39 250.57V73.4501C623.39 72.0301 624.5 70.9201 625.92 70.9201V70.9101Z"
     fill="#111111"
     id="path2"
     style="fill:#ffffff" />
  <path
     d="M693.311 161.95C693.311 106.28 725.141 67.97 779.341 67.97C799.881 67.97 817.341 75.71 828.431 87.56C830.001 89.23 832.831 88.22 832.831 85.89V2.58005C832.831 1.16005 833.941 0.0500488 835.361 0.0500488H874.381C875.801 0.0500488 876.911 1.16005 876.911 2.58005V250.56C876.911 251.97 875.801 253.09 874.381 253.09H835.361C833.941 253.09 832.831 251.98 832.831 250.56V237.66C832.831 235.33 830.001 234.27 828.431 236.04C817.251 248.54 799.331 255.98 780.101 255.98C725.141 255.98 693.361 217.67 693.361 162L693.311 161.96V161.95ZM786.221 217.62C816.231 217.62 835.761 195.55 835.761 161.95C835.761 128.35 816.231 106.28 786.221 106.28C756.211 106.28 737.431 128.35 737.431 161.95C737.431 195.55 756.961 217.62 786.221 217.62Z"
     fill="#111111"
     id="path3"
     style="fill:#ffffff" />
  <path
     d="M991.551 207.5V2.54001C991.551 1.12001 992.661 0.0100098 994.081 0.0100098H1036.38C1037.81 0.0100098 1038.91 1.12001 1038.91 2.54001V198.8C1038.91 205.79 1044.58 211.46 1051.57 211.46H1154.96C1156.38 211.46 1157.49 212.57 1157.49 213.99V250.48C1157.49 251.9 1156.38 253.01 1154.96 253.01H1037.09C1011.94 253.01 991.551 232.61 991.551 207.47V207.52V207.5Z"
     fill="#111111"
     id="path4"
     style="fill:#ffffff" />
  <path
     d="M1176.68 201.38C1176.68 165.95 1203.81 143.89 1245.01 143.89H1278.61C1287.26 143.89 1291.62 138.83 1291.62 131.59C1291.62 113.88 1278.25 101.22 1254.72 101.22C1231.19 101.22 1218.49 114.68 1216.62 130.02C1216.46 131.34 1215.45 132.29 1214.14 132.29H1179.11C1177.59 132.29 1176.38 130.97 1176.58 129.5C1180.48 94.73 1210.79 67.96 1256.59 67.96C1302.39 67.96 1335.75 94.73 1335.75 135.93V250.5C1335.75 251.91 1334.63 253.03 1333.22 253.03H1294.19C1292.78 253.03 1291.66 251.92 1291.66 250.5V235.62C1291.66 233.15 1288.58 232.18 1287.11 234.15C1277.45 247.51 1258.92 255.91 1237.11 255.91C1201.33 255.91 1176.74 232.78 1176.74 201.31L1176.68 201.36V201.38ZM1247.54 223.09C1275.37 223.09 1291.62 203.56 1291.62 176.08V173.2H1250.78C1231.99 173.2 1219.7 183.67 1219.7 199.57C1219.7 213.69 1230.89 223.06 1247.54 223.06V223.12V223.09Z"
     fill="#111111"
     id="path5"
     style="fill:#ffffff" />
  <path
     d="M1408.66 237.82V250.58C1408.66 251.99 1407.55 253.11 1406.13 253.11H1366.7C1365.29 253.11 1364.18 252 1364.18 250.58V2.59006C1364.18 1.17006 1365.29 0.0600586 1366.7 0.0600586H1406.13C1407.55 0.0600586 1408.66 1.17006 1408.66 2.59006V85.7901C1408.66 88.1201 1411.49 89.1801 1413.06 87.4601C1423.89 75.7201 1441.35 68.0301 1461.79 68.0301C1516 68.0301 1547.83 106.34 1547.83 162.01C1547.83 217.68 1516 255.99 1461.45 255.99C1441.96 255.99 1424.09 248.6 1413.12 236.2C1411.55 234.43 1408.66 235.44 1408.66 237.82ZM1454.92 217.68C1484.22 217.68 1503.7 195.62 1503.7 162.01C1503.7 128.4 1484.16 106.34 1454.92 106.34C1425.68 106.34 1405.78 128.41 1405.78 162.01C1405.78 195.61 1425.31 217.68 1454.92 217.68Z"
     fill="#111111"
     id="path6"
     style="fill:#ffffff" />
  <path
     d="M1565.75 192.31H1601.28C1602.54 192.31 1603.55 193.27 1603.75 194.48C1606.43 210.58 1619.85 220.49 1638.88 220.49C1656.23 220.49 1667.42 211.83 1667.42 200.96C1667.42 160.47 1568.02 199.14 1568.02 122.16C1568.02 90.33 1595.86 67.96 1633.1 67.96C1675.01 67.96 1703.85 90.23 1706.99 124.13C1707.15 125.6 1705.93 126.86 1704.46 126.86H1668.48C1667.26 126.86 1666.25 125.95 1666 124.73C1662.86 109.14 1648.03 101.15 1634.16 101.15C1618.63 101.15 1608.15 108.39 1608.15 120.69C1608.15 160.12 1709.02 116.69 1709.02 199.13C1709.02 233.49 1681.18 255.86 1638.88 255.86C1596.58 255.86 1566.55 232.43 1563.16 195.03C1563.01 193.56 1564.23 192.24 1565.75 192.24V192.29V192.31Z"
     fill="#111111"
     id="path7"
     style="fill:#ffffff" />
  <path
     d="M251.5 21.9099C247.67 14.4199 241.58 8.32992 234.09 4.50992C225.57 0.169922 214.42 0.169922 192.12 0.169922H63.71C41.42 0.169922 30.26 0.169922 21.74 4.50992C14.25 8.32992 8.16 14.4199 4.34 21.9099C0 30.4299 0 41.5799 0 63.8899V192.26C0 214.56 0 225.71 4.34 234.23C8.16 241.73 14.25 247.82 21.74 251.63C30.26 255.98 41.42 255.98 63.71 255.98H192.12C214.42 255.98 225.57 255.98 234.09 251.63C241.58 247.82 247.67 241.73 251.5 234.23C255.83 225.71 255.83 214.56 255.83 192.26V63.8899C255.83 41.5799 255.83 30.4299 251.5 21.9099ZM237.54 140.28C234.58 149.37 226.69 157.26 210.92 173.03L173.04 210.89C157.28 226.67 149.39 234.55 140.29 237.51C132.29 240.1 123.68 240.1 115.68 237.51C106.59 234.55 98.7 226.67 82.93 210.89L45.06 173.03C29.29 157.26 21.4 149.37 18.44 140.28C15.85 132.28 15.85 123.67 18.44 115.67C21.4 106.57 29.29 98.6899 45.06 82.9199L82.93 45.0499C98.7 29.2799 106.59 21.3899 115.68 18.4399C123.68 15.8399 132.29 15.8399 140.29 18.4399C149.39 21.3899 157.28 29.2799 173.04 45.0499L210.92 82.9199C226.69 98.6899 234.58 106.57 237.54 115.67C240.13 123.67 240.13 132.28 237.54 140.28Z"
     fill="#EEEEEE"
     id="path9" />
  <path
     d="M237.54 140.28C234.58 149.37 226.69 157.26 210.92 173.03L173.04 210.89C157.28 226.67 149.39 234.55 140.29 237.51C132.29 240.1 123.68 240.1 115.68 237.51C106.59 234.55 98.6996 226.67 82.9296 210.89L45.0596 173.03C29.2896 157.26 21.3996 149.37 18.4396 140.28C15.8496 132.28 15.8496 123.67 18.4396 115.67C21.3996 106.57 29.2896 98.69 45.0596 82.92L82.9296 45.05C98.6996 29.28 106.59 21.39 115.68 18.44C123.68 15.84 132.29 15.84 140.29 18.44C149.39 21.39 157.28 29.28 173.04 45.05L210.92 82.92C226.69 98.69 234.58 106.57 237.54 115.67C240.13 123.67 240.13 132.28 237.54 140.28Z"
     fill="#FF5D02"
     id="path10" />
</svg>
