<svg xmlns="http://www.w3.org/2000/svg" viewBox="0 0 242.06 83.193"><defs><style>.cls-1{fill:#ffbb1c;}</style></defs><g id="Layer_2" data-name="Layer 2"><g id="Layer_1-2" data-name="Layer 1"><path class="cls-1" d="M140.005,51.533a17.55,17.55,0,1,1,17.5-17.6v.05a17.569,17.569,0,0,1-17.5,17.55m-69.56,0A17.55,17.55,0,1,1,88,33.983a17.549,17.549,0,0,1-17.55,17.55m139.13-35.1a17.565,17.565,0,1,1-.01,0m-17.56,59.25V61.313l.32.2a32.48,32.48,0,1,0,17.24-60H70.4a32.47,32.47,0,0,0-27.53,49.72l.2.31H14.935V7.743A7.47,7.47,0,0,0,.005,7.2q-.01.273,0,.546V58.1a8.39,8.39,0,0,0,8.38,8.38h62a32.48,32.48,0,0,0,27.53-49.72l-.2-.32h14.9l-.2.32a32.49,32.49,0,1,0,55.06,0l-.2-.32h14.9l-.19.32a32.284,32.284,0,0,0-5,17.23v41.69a7.51,7.51,0,0,0,15.02,0"/></g></g></svg>