<svg id="Layer_1" data-name="Layer 1" xmlns="http://www.w3.org/2000/svg" xmlns:xlink="http://www.w3.org/1999/xlink" viewBox="0 0 295.789 71.446"><defs><style>.cls-1{fill:none;}.cls-2{clip-path:url(#clip-path);}.cls-3{fill:#fff;}</style><clipPath id="clip-path"><rect class="cls-1" width="295.789" height="71.446"/></clipPath></defs><g class="cls-2"><path class="cls-3" d="M138.372,16.331H111.467A9.972,9.972,0,0,0,101.5,26.3V45.146a9.971,9.971,0,0,0,9.972,9.971h26.905a9.971,9.971,0,0,0,9.971-9.971V26.3a9.972,9.972,0,0,0-9.971-9.972m1.108,28.815a1.108,1.108,0,0,1-1.108,1.108H111.467a1.108,1.108,0,0,1-1.108-1.108V26.3a1.108,1.108,0,0,1,1.108-1.108h26.905A1.108,1.108,0,0,1,139.48,26.3Zm85.578-28.815h17.157V25.2H225.058V45.146a1.108,1.108,0,0,0,1.108,1.108h16.049v8.863H226.166a9.972,9.972,0,0,1-9.972-9.971V25.2h-5.77V16.331h5.77V2.233h8.864Zm60.76,0H258.912a9.972,9.972,0,0,0-9.971,9.972V45.146a9.971,9.971,0,0,0,9.971,9.971h26.906a9.971,9.971,0,0,0,9.971-9.971V26.3a9.972,9.972,0,0,0-9.971-9.972m1.108,28.815a1.109,1.109,0,0,1-1.108,1.108H258.912a1.109,1.109,0,0,1-1.108-1.108V26.3a1.109,1.109,0,0,1,1.108-1.108h26.906a1.109,1.109,0,0,1,1.108,1.108ZM194.213,16.331H157.336V69.216H166.2v-14.1l28.014,0a9.97,9.97,0,0,0,9.97-9.971V26.3a9.972,9.972,0,0,0-9.971-9.972m1.108,28.815a1.108,1.108,0,0,1-1.108,1.108h-26.9a1.108,1.108,0,0,1-1.108-1.108V26.3a1.108,1.108,0,0,1,1.108-1.108h26.905a1.108,1.108,0,0,1,1.108,1.108Z"/><path class="cls-3" d="M71.446,8.163v36.49H55.119V18.367a2.04,2.04,0,0,0-2.041-2.04H26.792V0H63.283a8.163,8.163,0,0,1,8.163,8.163M16.327,53.078V1.534L0,17.861V63.282a8.164,8.164,0,0,0,8.164,8.164H53.585L69.911,55.119H18.368a2.041,2.041,0,0,1-2.041-2.041"/></g></svg>