<svg width="929" height="358" viewBox="0 0 929 358" fill="none" xmlns="http://www.w3.org/2000/svg">
<g clip-path="url(#clip0_4797_15)">
<path d="M227.521 110.337H276.002C308.402 110.337 328.322 127.617 328.322 155.217C328.322 183.777 307.682 200.577 276.002 200.577H246.481V252.897H227.281C227.521 252.897 227.521 110.337 227.521 110.337ZM246.961 126.177V185.217H275.522C296.642 185.217 309.122 173.937 309.122 155.697C309.122 137.937 296.402 126.177 276.242 126.177C276.002 126.177 246.961 126.177 246.961 126.177Z" fill="white"/>
<path d="M342 177.776C345.6 153.536 361.68 138.896 388.8 138.896C418.32 138.896 432.72 156.176 432.72 182.336V226.016C432.72 238.736 433.68 246.656 436.8 252.896H417.36C415.2 248.576 414.48 242.096 414.24 235.376C404.64 249.536 390 255.296 376.32 255.296C353.28 255.296 337.92 244.496 337.92 223.616C337.92 208.256 346.32 197.216 362.64 191.936C377.76 186.896 392.88 185.696 414.24 185.456V183.056C414.24 165.296 405.84 155.456 386.88 155.456C370.8 155.456 362.64 164.336 360 178.496H341.76V177.776H342ZM378.24 238.976C398.88 238.976 414.24 222.896 414.24 203.936V198.656C367.2 198.896 356.64 209.216 356.64 222.656C356.64 233.216 365.28 238.976 378.24 238.976Z" fill="white"/>
<path d="M457.204 156.177H441.604V141.297H456.964V111.057H475.444V141.537H499.684V156.417H475.444V220.737C475.444 233.937 479.524 240.417 495.844 240.417H499.444V253.617C497.284 254.577 492.724 255.057 487.444 255.057C466.804 255.057 456.964 244.017 456.964 220.497L457.204 156.177Z" fill="white"/>
<path d="M509.043 102.176H527.523V252.896H509.043V102.176Z" fill="white"/>
<path d="M542.643 299.458V285.298H548.163C561.603 285.298 565.443 282.418 576.483 257.697L580.083 249.057L534.723 141.537H554.643L584.883 214.737L589.923 229.617L594.963 214.737L624.243 141.537H642.963L591.363 267.058C580.323 293.938 572.883 300.898 553.923 300.898C549.123 300.898 544.803 299.938 542.643 299.458Z" fill="white"/>
<path d="M644.645 156.177H629.285V141.297H644.645V111.057H663.125V141.537H687.365V156.417H663.125V220.737C663.125 233.937 667.205 240.417 683.525 240.417H687.125V253.617C684.965 254.577 680.405 255.057 675.125 255.057C654.485 255.057 644.645 244.017 644.645 220.497V156.177Z" fill="white"/>
<path d="M696.484 102.176H714.964V126.656H696.484V102.176ZM696.484 141.536H714.964V252.896H696.484V141.536Z" fill="white"/>
<path d="M809.284 179.697C806.164 162.657 795.124 154.737 780.244 154.737C759.604 154.737 748.804 169.857 748.804 197.217C748.804 224.337 760.084 239.457 780.724 239.457C795.604 239.457 806.164 231.537 809.764 215.697H828.244C823.204 243.057 804.964 255.057 780.484 255.057C748.804 255.057 730.084 233.217 730.084 197.217C730.084 159.777 749.284 139.137 780.244 139.137C804.484 139.137 823.924 153.057 827.284 180.177H809.044V179.697H809.284Z" fill="white"/>
<path d="M928.563 221.216C928.563 241.856 910.083 255.056 883.923 255.056C857.523 255.056 839.283 242.336 834.963 216.176H853.443C855.843 231.536 867.603 240.176 884.643 240.176C901.203 240.176 910.083 232.736 910.083 222.416C910.083 192.176 838.563 217.136 838.563 171.296C838.563 154.256 851.763 138.896 878.883 138.896C902.883 138.896 920.643 150.176 924.243 177.776H905.763C902.883 160.496 893.523 154.016 877.683 154.016C863.763 154.016 855.843 160.736 855.843 170.096C856.563 200.816 928.563 175.376 928.563 221.216Z" fill="white"/>
<path d="M82.8004 312.415C78.0004 312.415 73.2004 311.215 68.8804 308.575L23.5201 280.735C9.12005 271.855 0 255.775 0 238.735V78.1745C0 68.3344 5.04003 59.6944 13.6801 54.8944C22.3201 50.0944 32.4002 50.3344 40.5602 55.3744L85.9204 82.9745C100.561 91.8545 109.441 107.935 109.441 124.975V285.535C109.441 295.375 104.401 304.015 95.7605 308.815C91.9205 311.215 87.3604 312.415 82.8004 312.415ZM26.8801 70.2545C24.9601 70.2545 23.5201 70.9745 22.8001 71.2145C21.6001 71.9345 18.7201 74.0945 18.7201 78.1745V238.735C18.7201 249.295 24.2401 259.375 33.3602 264.895L78.7204 292.495C82.3204 294.655 85.6804 293.455 86.8804 292.735C88.0805 292.015 90.9605 289.855 90.9605 285.775V125.215C90.9605 114.655 85.4404 104.575 76.3204 99.0545L30.9602 71.4545C29.5201 70.4944 28.0801 70.2545 26.8801 70.2545Z" fill="#57DD2F"/>
<path d="M128.4 233.456C123.6 233.456 118.8 232.256 114.48 229.616L69.1197 201.776C54.4797 192.895 45.5996 176.815 45.5996 159.775V52.735C45.5996 42.895 50.6396 34.255 59.2797 29.4549C67.9197 24.6549 77.9998 24.8949 86.1598 29.935L131.52 57.535C146.16 66.4151 155.04 82.4951 155.04 99.5352V206.576C155.04 216.416 150 225.056 141.36 229.856C137.28 232.256 132.96 233.456 128.4 233.456ZM72.2397 44.575C70.3197 44.575 68.8797 45.295 68.1597 45.535C66.9597 46.255 64.0797 48.415 64.0797 52.495V159.535C64.0797 170.095 69.5997 180.175 78.7198 185.695L124.08 213.296C127.68 215.456 131.04 214.256 132.24 213.536C133.44 212.816 136.32 210.656 136.32 206.576V99.5352C136.32 88.9751 130.8 78.8951 121.68 73.3751L76.3198 45.775C74.8798 44.815 73.4398 44.575 72.2397 44.575Z" fill="#57DD2F"/>
</g>
<defs>
<clipPath id="clip0_4797_15">
<rect width="928.56" height="358" fill="white"/>
</clipPath>
</defs>
</svg>
