<svg width="1000" height="266" viewBox="0 0 1000 266" fill="none" xmlns="http://www.w3.org/2000/svg">
<path d="M587.412 6.43133C620.874 5.03593 625.503 29.8978 625.054 56.4545C624.663 79.5198 624.819 102.927 595.82 107.134C590.391 108.835 578.892 105.748 574.19 102.591C557.373 91.1799 558.247 69.9565 558.394 52.0589C558.569 29.8742 562.896 11.7078 587.412 6.43133ZM594.448 95.2075C611.265 91.2282 611.577 77.2508 611.426 62.7877C611.24 44.9221 615.137 17.4758 588.955 18.6989C583.862 20.0853 578.374 22.7161 576.123 27.918C569.854 42.3911 571.026 64.4442 573.682 79.7458C575.523 90.3575 584.336 95.7522 594.448 95.2075Z" fill="#FEFEFE"/>
<path d="M720.601 7.41393L733.887 7.35585C732.607 18.5025 728.018 39.0876 725.576 50.6713C721.894 68.1375 718.56 88.701 714.419 105.754L702.446 105.89C698.11 88.007 693.955 70.0786 689.995 52.1082C689.136 48.3392 686.562 35.0362 685.732 32.3774C681.562 55.8868 673.56 81.9905 668.652 105.681C664.321 105.814 660.395 105.922 656.069 105.783C651.943 83.9286 647.656 62.1049 643.203 40.3137C641.792 33.2486 637.412 13.5819 637.114 7.38543C641.372 7.37728 646.108 7.26605 650.327 7.41501L660.166 61.5319C661.011 66.2242 661.855 70.9244 662.632 75.6289C662.983 77.756 662.837 79.4305 663.389 81.5463C664.883 73.0231 666.851 64.5072 668.853 56.0845C672.695 39.8995 676.128 23.561 680.029 7.39802C683.726 7.39007 687.637 7.31378 691.313 7.39041C694.829 25.9233 700.044 44.6263 703.711 63.184C704.238 65.8553 705.449 72.4838 706.313 74.6962L707.495 81.7547C708.135 78.8185 708.389 77.7028 708.374 74.6235C711.475 59.2033 713.779 43.5216 716.714 28.0728C717.895 21.8367 719.038 13.4558 720.601 7.41393Z" fill="#FEFEFE"/>
<path d="M804.106 163.447C814.917 163.377 833.784 162.231 843.618 165.161C866.455 171.968 867.969 208.263 846.558 219.371C851.733 231.868 861.167 249.572 865.298 261.647C860.488 261.554 855.376 261.68 850.547 261.716C849.795 259.553 848.696 257.2 847.764 255.082C845.601 250.559 834.731 226.285 833.833 222.62L817.554 222.61C818.091 234.486 817.71 249.544 817.734 261.661L804.131 261.663C803.555 229.76 803.877 195.426 804.106 163.447ZM817.69 210.957C827.49 211.006 835.503 212.424 843.291 206.272C844.941 203.998 846.743 201.49 847.109 198.664C850.562 172.092 834.834 176.03 817.559 175.638C817.749 187.41 817.793 199.184 817.69 210.957Z" fill="#FEFEFE"/>
<path d="M573.447 163.487C577.876 163.348 582.52 163.431 586.963 163.447C589.189 168.208 592.866 174.471 595.396 179.417L625.581 237.519C624.834 231.061 625.19 217.77 625.186 210.934L625.21 163.432C629.546 163.323 634.219 163.444 638.584 163.478C639.429 194.693 638.691 229.204 638.687 260.677L638.496 261.293C636.978 261.925 627.437 261.705 625.142 261.705L599.521 212.614C595.571 204.977 591.064 197.242 587.788 189.326C587.266 212.92 587.588 237.97 587.686 261.65L573.394 261.67C573.384 229.067 573.101 196.058 573.447 163.487Z" fill="#FEFEFE"/>
<path d="M773.013 163.447L786.675 163.399L786.68 175.044L786.704 212.406C786.714 222.534 787.275 231.316 785.454 241.887C781.47 264.949 748.584 269.003 733.462 255.6C723.179 246.48 725.444 225.557 725.444 212.081V163.421L738.779 163.413L738.745 210.425C738.74 219.124 738.403 227.853 739.268 236.55C740.259 246.497 745.005 251.227 755.132 251.419C765.093 251.608 771.26 248.176 772.271 237.738C773.345 228.188 773.008 218.819 773.003 209.249L773.013 163.447Z" fill="#FEFEFE"/>
<path d="M451.178 6.4541C468.488 5.60749 481.901 12.895 485.063 31.3187C485.37 33.1098 485.608 34.9205 485.858 36.7221C481.437 37.0809 475.941 36.8904 471.523 36.7445C471.423 22.9322 465.6 17.3479 451.696 18.7026C444.258 19.4275 439.593 28.5403 440.823 35.0916C443.603 49.8938 465.981 50.1676 475.752 58.8933C481.236 63.3363 484.731 69.3928 485.391 76.6148C487.103 95.3637 476.929 105.203 459.404 107.195C459.014 107.296 458.618 107.377 458.219 107.438C452.333 108.336 441.694 105.501 436.927 101.673C427.092 93.7764 425.889 87.9196 424.08 76.6114C429.075 76.3317 433.265 76.3908 438.238 76.4903C438.759 82.4751 439.37 89.0304 445.063 92.5211C452.313 96.9665 464.74 97.0426 469.745 89.1407C472.004 85.5749 471.763 79.2309 470.979 75.2355C469.805 69.241 461.954 66.1495 456.928 64.0264C451.167 61.8169 446.523 60.1287 441.146 57.025C426.915 48.8117 423.071 32.6055 431.181 18.4773C435.382 11.1584 443.079 8.26651 451.178 6.4541Z" fill="#FEFEFE"/>
<path d="M302.328 94.4402C306.905 97.1124 313.813 100.23 318.682 102.749C330.363 108.792 342.112 114.76 353.819 120.75C360.756 124.301 361.803 125.979 363.889 132.864C361.18 143.744 353.381 145.559 344.074 150.118C332.477 155.851 313.444 166.81 302.428 171.185C301.855 146.359 302.355 119.428 302.328 94.4402ZM318.7 144.852C323.671 142.294 328.912 139.306 333.842 136.871C336.198 135.651 338.983 134.299 341.25 132.99C333.85 128.794 326.446 124.68 318.698 121.149C318.7 128.995 318.795 137.023 318.7 144.852Z" fill="#FEFEFE"/>
<path d="M506.157 163.447C523.066 163.023 541.626 163.405 558.672 163.401L558.691 175.708L519.619 175.652L519.663 205.416C531.016 205.462 542.368 205.438 553.721 205.343L553.726 216.759C542.622 216.958 530.85 216.768 519.702 216.759L519.643 228.662L519.668 250.353L559.668 250.319L559.678 261.657L506.147 261.665C506.03 257.172 505.957 252.587 506.025 248.094C506.455 219.994 505.356 191.509 506.157 163.447Z" fill="#FEFEFE"/>
<path d="M876.406 163.42C893.569 163.097 912.383 163.315 929.58 163.472C929.746 167.394 929.648 171.678 929.624 175.632C916.606 175.91 902.7 175.666 889.614 175.665C889.951 184.927 889.834 196.075 889.741 205.37L924.507 205.422C924.746 208.8 924.668 213.305 924.697 216.773L889.658 216.842C889.766 219.887 889.727 223.254 889.751 226.328C889.785 234.33 889.78 242.331 889.736 250.333C903.081 250.4 916.426 250.383 929.771 250.282L929.785 261.69C912.383 261.313 893.896 261.614 876.436 261.677L876.406 163.42Z" fill="#FEFEFE"/>
<path d="M422.037 163.446L436.001 163.376C438.581 170.785 456.576 237.551 458.192 238.505C458.321 236.832 460.709 229.341 461.339 227.165C467.476 205.964 473.194 184.581 479.484 163.43L494.214 163.425C492.866 169.145 490.498 176.351 488.672 181.948C479.799 207.648 472.56 235.692 463.755 261.681C459.893 261.589 455.679 261.684 451.787 261.693C450.158 254.795 446.392 243.729 444.2 236.659L429.436 189.296C427.814 184.117 422.454 168.175 422.037 163.446Z" fill="#FEFEFE"/>
<path d="M649.434 163.48C670.22 162.978 693.618 163.271 714.502 163.474C714.712 167.797 714.678 171.294 714.556 175.628C706.084 175.824 697.017 175.658 688.501 175.653C689.248 194.544 688.677 216.841 688.672 235.983C688.599 244.546 688.633 253.109 688.77 261.671C684.356 261.603 679.771 261.68 675.342 261.692L675.357 175.667C666.724 175.698 658.096 175.68 649.463 175.615C649.356 171.672 649.434 167.446 649.434 163.48Z" fill="#FEFEFE"/>
<path d="M500.342 7.3621L513.696 7.34717L513.691 94.2876C526.392 94.3593 539.087 94.3452 551.782 94.2456L551.777 105.88C535.142 105.555 517.08 105.728 500.444 105.914C499.966 73.4234 500.464 39.9563 500.342 7.3621Z" fill="#FEFEFE"/>
<path d="M706.313 74.6963L708.374 74.6235C708.389 77.7028 708.135 78.8185 707.495 81.7548L706.313 74.6963Z" fill="black" fill-opacity="0.0313725"/>
<path d="M120.315 0H144.887C182.359 4.30882 213.281 20.5343 237.138 50.0417C244.582 59.2482 252.399 72.7776 256.864 83.9379C260.864 93.9346 262.679 105.67 269.458 114.777C273.023 119.566 278.043 123.964 284.105 124.448C285.557 124.564 288.319 124.795 288.52 126.224C289.139 130.617 288.583 136.124 288.692 140.559C263.624 143.659 263.332 167.646 254.842 186.548C234.743 231.294 195.436 259.491 146.937 265.579L143.417 266H122.735C94.7964 263.792 68.2695 252.819 46.9409 234.647C18.5176 210.409 2.91968 177.979 0 140.975V123.037C2.9769 97.6986 9.20913 76.8677 24.2623 55.8873C41.5053 31.6722 66.2871 13.848 94.7358 5.19959C103.345 2.66857 111.51 1.44386 120.315 0ZM112.752 248.278C143.379 253.668 174.889 246.555 200.226 228.534C225.774 210.443 243.068 182.932 248.291 152.075C248.922 148.463 249.571 144.269 249.484 140.607L177.751 140.635C177.841 152.725 173.27 166.317 167.092 177.003C151.08 204.698 121.747 222.47 89.5293 222.638C74.4209 222.717 61.1753 218.812 47.7518 212.319C62.5146 228.543 79.8618 239.608 101.128 245.603C103.807 246.358 110.102 248.162 112.752 248.278ZM46.8091 53.4875C72.936 42.5641 95.8237 38.8121 123.138 50.0475C145.275 59.1921 162.845 76.7896 171.949 98.9354C173.764 103.29 175.218 107.535 176.225 112.142C177.278 116.616 177.933 120.522 177.731 125.148C187.39 122.905 247.12 125.554 249.149 124.119C249.83 121.337 248.809 116.367 248.272 113.503C245.466 98.5284 241.146 85.9429 233.196 72.8742C217.238 46.1042 191.26 26.7998 161.017 19.2373C149.943 16.477 138.53 15.3156 127.127 15.7884C121.742 16.3697 115.568 16.9363 110.316 18.0034C86.0332 23.1112 63.8823 35.4881 46.8091 53.4875ZM43.85 190.195C64.8354 206.46 89.3838 210.695 114.483 201.628C140.355 191.775 159.247 168.49 161.769 140.688C137.831 140.43 112 141.277 88.4507 140.576C87.5273 144.533 87.2817 147.24 86.0127 151.206C81.6353 164.544 72.7671 175.953 60.9189 183.489C55.9253 186.598 49.6953 189.34 43.85 190.195ZM30.1145 89.3926C22.0226 102.851 18.8094 109.281 16.221 125.356C21.3093 123.768 50.9805 124.482 58.3003 124.465C61.4936 124.464 68.479 124.146 71.1216 125.153C71.9429 123.238 69.8511 117.365 68.9697 115.36C61.3623 98.0579 47.6168 92.0609 30.1145 89.3926ZM71.6587 140.594C53.4487 140.605 34.6963 140.847 16.5296 140.539C18.0864 154.347 22.5919 164.881 30.2002 176.427C41.9794 174.733 50.2456 172.69 59.0752 164.024C65.6699 157.439 70.5952 150.122 71.6587 140.594ZM84.5142 59.7324C67.0112 61.6329 57.5161 65.4965 43.3069 75.7539C56.6055 77.4929 69.0513 86.9024 77.0269 97.3082C80.0767 101.331 82.5806 105.739 84.4731 110.418C85.4941 112.929 88.3594 123.904 89.0112 124.508C98.1294 125 113.087 124.432 122.803 124.441C126.562 124.444 161.268 124.604 161.693 124.383C160.526 108.161 150.152 88.4223 137.755 78.059C121.752 64.6819 105.165 58.99 84.5142 59.7324Z" fill="#FEFEFE"/>
<path d="M952.847 232.372C953.057 234.528 953.486 238.648 954.219 240.561C961.328 259.078 992.808 253.069 985.732 231.049C982.246 221.775 968.301 218.622 959.785 214.882C944.907 208.344 937.129 191.964 944.902 176.565C947.969 170.53 953.281 165.941 959.702 163.788C967.1 161.359 977.803 161.683 984.634 165.459C994.458 170.889 996.836 176.137 1000 185.89V192.671L986.445 192.785C986.44 188.541 986.504 186.815 984.941 182.765C981.221 173.105 966.221 171.431 959.346 178.496C956.777 181.168 955.376 184.75 955.449 188.454C955.532 192.997 958.594 198.49 962.388 200.8C979.341 211.118 992.593 207.947 1000 229.693V243.604C999.072 245.4 998.672 247.529 997.539 249.389C991.665 259.049 983.887 262.58 972.935 263.014C953.603 263.78 939.736 251.894 939.331 232.352L952.847 232.372Z" fill="#FEFEFE"/>
</svg>
