<svg width="105" height="105" viewBox="0 0 105 105" fill="none" xmlns="http://www.w3.org/2000/svg">
<g clip-path="url(#clip0_4468_4432)">
<path d="M45.91 102.18C21.97 102.18 2.5 79.82 2.5 52.34C2.5 24.86 21.97 2.5 45.91 2.5C69.85 2.5 89.32 24.86 89.32 52.34C89.32 79.82 69.85 102.18 45.91 102.18Z" fill="#F580DB"/>
<path d="M45.91 5C68.47 5 86.82 26.24 86.82 52.34C86.82 78.44 68.47 99.68 45.91 99.68C23.35 99.68 5 78.44 5 52.34C5 26.24 23.35 5 45.91 5ZM45.91 0C20.55 0 0 23.43 0 52.34C0 81.25 20.55 104.68 45.91 104.68C71.27 104.68 91.82 81.25 91.82 52.34C91.82 23.43 71.26 0 45.91 0Z" fill="#401011"/>
<path d="M35.8899 34.89H2.92993V39.89H35.8899V34.89Z" fill="#401011"/>
<path d="M43.25 19.9399H10.29V24.9399H43.25V19.9399Z" fill="#401011"/>
<path d="M53.49 9.96997H20.53V14.97H53.49V9.96997Z" fill="#401011"/>
<path d="M60.26 4.97998H27.3V9.97998H60.26V4.97998Z" fill="#401011"/>
<path d="M35.8899 64.79H2.92993V69.79H35.8899V64.79Z" fill="#401011"/>
<path d="M43.25 79.74H10.29V84.74H43.25V79.74Z" fill="#401011"/>
<path d="M53.49 89.71H20.53V94.71H53.49V89.71Z" fill="#401011"/>
<path d="M60.26 94.6899H27.3V99.6899H60.26V94.6899Z" fill="#401011"/>
<path d="M58.7699 0H45.9099V5H58.7699V0Z" fill="#190F0A"/>
<path d="M58.7699 0H45.9099V14.97H58.7699V0Z" fill="#190F0A"/>
<path d="M58.7699 99.6801H45.9099V104.68H58.7699V99.6801Z" fill="#190F0A"/>
<path d="M58.7699 89.71H45.9099V104.68H58.7699V89.71Z" fill="#190F0A"/>
<path d="M58.7701 102.18C34.8401 102.18 15.3601 79.82 15.3601 52.34C15.3601 24.86 34.8301 2.5 58.7701 2.5C82.7101 2.5 102.18 24.86 102.18 52.34C102.18 79.82 82.7101 102.18 58.7701 102.18Z" fill="#F580DB"/>
<path d="M58.7701 5C81.3301 5 99.6801 26.24 99.6801 52.34C99.6801 78.44 81.3301 99.68 58.7701 99.68C36.2101 99.68 17.8601 78.44 17.8601 52.34C17.8601 26.24 36.2101 5 58.7701 5ZM58.7701 0C33.4101 0 12.8601 23.43 12.8601 52.34C12.8601 81.25 33.4101 104.68 58.7701 104.68C84.1301 104.68 104.68 81.25 104.68 52.34C104.68 23.43 84.1201 0 58.7701 0Z" fill="#401011"/>
<path d="M42.05 72V65.37C42.05 57.48 46.57 54.23 50.07 51.76L51.21 50.89C53.78 49.03 56.6501 46.94 56.6501 43.01C56.6501 41.17 55.84 40.27 54.55 40.27C53.11 40.27 52.1301 41.36 52.1301 44.93V48.52H42.23V44.88C42.23 36.66 47.14 31.85 54.69 31.85C62.24 31.85 66.8301 36.58 66.8301 43.85C66.8301 51.69 61.4401 55.29 57.6101 57.89L56.6301 58.62C54.6401 60.01 52.59 61.48 51.96 63.54H66.74V72H42.0601H42.05Z" fill="#401011"/>
<path d="M80.5901 72.8199C73.1701 72.8199 68.5901 68.0499 68.5901 60.2799V59.3699H78.2401V60.9399C78.2401 63.2999 78.8901 64.3499 80.3001 64.3499C81.9901 64.3499 82.5701 62.9099 82.5701 58.7099C82.5701 54.5099 81.9501 52.9199 80.2901 52.9199C78.9701 52.9199 78.2401 53.8799 78.2401 55.6599V56.4899H68.5901V32.6899H90.9201V41.1499H78.2401V48.6599H78.3801C79.4501 46.6899 81.6101 45.5499 84.2501 45.5499C89.6401 45.5499 92.6801 50.2699 92.6801 58.1799C92.6801 67.5399 88.3901 72.8199 80.6001 72.8199H80.5901Z" fill="#401011"/>
<path d="M30.3701 64.11C26.7901 63.49 24.8501 60.66 24.8501 55.87H30.6101C30.6101 58.31 31.0001 59.35 31.9201 59.35C32.6101 59.35 33.0801 58.77 33.0801 57.93C33.0801 56.58 31.7401 55.54 30.5101 54.62L29.7101 54.03C27.8101 52.61 24.9401 50.5 24.9401 46.73C24.9401 43.5 27.0701 41.13 30.3401 40.55L30.0401 36.9H33.8501L33.5501 40.57C36.9801 41.25 38.8901 44.13 38.8901 48.59H33.1301C33.1301 46.33 32.7301 45.31 31.8401 45.31C31.2101 45.31 30.8001 45.83 30.8001 46.6C30.8001 47.9 32.0701 48.82 33.1701 49.58L33.9701 50.13C36.0001 51.54 39.0501 53.61 39.0501 57.76C39.0501 61.19 36.9901 63.55 33.6101 64.12L33.9001 67.77H30.0901L30.3801 64.11H30.3701Z" fill="#401011"/>
</g>
<defs>
<clipPath id="clip0_4468_4432">
<rect width="104.68" height="104.68" fill="white"/>
</clipPath>
</defs>
</svg>
