<svg width="105" height="105" viewBox="0 0 105 105" fill="none" xmlns="http://www.w3.org/2000/svg">
<g clip-path="url(#clip0_4468_4358)">
<path d="M45.91 102.18C21.98 102.18 2.5 79.82 2.5 52.34C2.5 24.86 21.97 2.5 45.91 2.5C69.85 2.5 89.32 24.86 89.32 52.34C89.32 79.82 69.85 102.18 45.91 102.18Z" fill="#F1F0EC"/>
<path d="M45.91 5C68.47 5 86.82 26.24 86.82 52.34C86.82 78.44 68.47 99.68 45.91 99.68C23.35 99.68 5 78.44 5 52.34C5 26.24 23.35 5 45.91 5ZM45.91 0C20.55 0 0 23.43 0 52.34C0 81.25 20.55 104.68 45.91 104.68C71.27 104.68 91.82 81.25 91.82 52.34C91.82 23.43 71.26 0 45.91 0Z" fill="#190F0A"/>
<path d="M35.8899 34.89H2.92993V39.89H35.8899V34.89Z" fill="#190F0A"/>
<path d="M43.24 19.9399H10.28V24.9399H43.24V19.9399Z" fill="#190F0A"/>
<path d="M53.49 9.96997H20.53V14.97H53.49V9.96997Z" fill="#190F0A"/>
<path d="M60.26 4.97998H27.3V9.97998H60.26V4.97998Z" fill="#190F0A"/>
<path d="M35.8899 64.79H2.92993V69.79H35.8899V64.79Z" fill="#190F0A"/>
<path d="M43.24 79.74H10.28V84.74H43.24V79.74Z" fill="#190F0A"/>
<path d="M53.49 89.71H20.53V94.71H53.49V89.71Z" fill="#190F0A"/>
<path d="M60.26 94.6899H27.3V99.6899H60.26V94.6899Z" fill="#190F0A"/>
<path d="M58.7699 0H45.9099V5H58.7699V0Z" fill="#190F0A"/>
<path d="M58.7699 0H45.9099V14.97H58.7699V0Z" fill="#190F0A"/>
<path d="M58.7699 99.6801H45.9099V104.68H58.7699V99.6801Z" fill="#190F0A"/>
<path d="M58.7699 89.71H45.9099V104.68H58.7699V89.71Z" fill="#190F0A"/>
<path d="M58.7701 102.18C34.8401 102.18 15.3601 79.82 15.3601 52.34C15.3601 24.86 34.8301 2.5 58.7701 2.5C82.7101 2.5 102.18 24.86 102.18 52.34C102.18 79.82 82.7101 102.18 58.7701 102.18Z" fill="#F1F0EC"/>
<path d="M58.7701 5C81.3301 5 99.6801 26.24 99.6801 52.34C99.6801 78.44 81.3301 99.68 58.7701 99.68C36.2101 99.68 17.8601 78.44 17.8601 52.34C17.8601 26.24 36.2101 5 58.7701 5ZM58.7701 0C33.4101 0 12.8601 23.43 12.8601 52.34C12.8601 81.25 33.4101 104.68 58.7701 104.68C84.1301 104.68 104.68 81.25 104.68 52.34C104.68 23.43 84.1201 0 58.7701 0Z" fill="#190F0A"/>
<path d="M72.55 63.75H76.45V72.21H58.45V63.75H62.37V45.3H57.27V37.26H58.54C62.64 37.26 63.78 36.41 63.78 32.48H72.55V63.76V63.75Z" fill="#190F0A"/>
<path d="M46.6001 64.11C43.0201 63.49 41.0801 60.66 41.0801 55.87H46.8401C46.8401 58.31 47.2301 59.35 48.1501 59.35C48.8401 59.35 49.3101 58.77 49.3101 57.93C49.3101 56.58 47.9701 55.54 46.7401 54.62L45.9401 54.03C44.0401 52.61 41.1701 50.5 41.1701 46.73C41.1701 43.5 43.3001 41.13 46.5701 40.55L46.2701 36.9H50.0801L49.7801 40.57C53.2101 41.25 55.1201 44.13 55.1201 48.59H49.3601C49.3601 46.33 48.9601 45.31 48.0701 45.31C47.4401 45.31 47.0301 45.83 47.0301 46.6C47.0301 47.9 48.3001 48.82 49.4001 49.58L50.2001 50.13C52.2301 51.54 55.2801 53.61 55.2801 57.76C55.2801 61.19 53.2201 63.55 49.8401 64.12L50.1301 67.77H46.3201L46.6101 64.11H46.6001Z" fill="#190F0A"/>
</g>
<defs>
<clipPath id="clip0_4468_4358">
<rect width="104.68" height="104.68" fill="white"/>
</clipPath>
</defs>
</svg>
