<svg width="105" height="105" viewBox="0 0 105 105" fill="none" xmlns="http://www.w3.org/2000/svg">
<g clip-path="url(#clip0_4468_4382)">
<path d="M45.91 102.18C21.98 102.18 2.5 79.82 2.5 52.34C2.5 24.86 21.97 2.5 45.91 2.5C69.85 2.5 89.32 24.86 89.32 52.34C89.32 79.82 69.85 102.18 45.91 102.18Z" fill="#FF7C24"/>
<path d="M45.91 5C68.47 5 86.82 26.24 86.82 52.34C86.82 78.44 68.47 99.68 45.91 99.68C23.35 99.68 5 78.44 5 52.34C5 26.24 23.35 5 45.91 5ZM45.91 0C20.55 0 0 23.43 0 52.34C0 81.25 20.55 104.68 45.91 104.68C71.27 104.68 91.82 81.25 91.82 52.34C91.82 23.43 71.26 0 45.91 0Z" fill="#190F0A"/>
<path d="M35.8899 34.89H2.92993V39.89H35.8899V34.89Z" fill="#190F0A"/>
<path d="M43.24 19.9399H10.28V24.9399H43.24V19.9399Z" fill="#190F0A"/>
<path d="M53.49 9.96997H20.53V14.97H53.49V9.96997Z" fill="#190F0A"/>
<path d="M60.26 4.97998H27.3V9.97998H60.26V4.97998Z" fill="#190F0A"/>
<path d="M35.8899 64.79H2.92993V69.79H35.8899V64.79Z" fill="#190F0A"/>
<path d="M43.24 79.74H10.28V84.74H43.24V79.74Z" fill="#190F0A"/>
<path d="M53.49 89.71H20.53V94.71H53.49V89.71Z" fill="#190F0A"/>
<path d="M60.26 94.6899H27.3V99.6899H60.26V94.6899Z" fill="#190F0A"/>
<path d="M58.7699 0H45.9099V5H58.7699V0Z" fill="#190F0A"/>
<path d="M58.7699 0H45.9099V14.97H58.7699V0Z" fill="#190F0A"/>
<path d="M58.7699 99.6801H45.9099V104.68H58.7699V99.6801Z" fill="#190F0A"/>
<path d="M58.7699 89.71H45.9099V104.68H58.7699V89.71Z" fill="#190F0A"/>
<path d="M58.7701 102.18C34.8301 102.18 15.3601 79.82 15.3601 52.34C15.3601 24.86 34.8301 2.5 58.7701 2.5C82.7101 2.5 102.18 24.86 102.18 52.34C102.18 79.82 82.7101 102.18 58.7701 102.18Z" fill="#FF7C24"/>
<path d="M58.7701 5C81.3301 5 99.6801 26.24 99.6801 52.34C99.6801 78.44 81.3301 99.68 58.7701 99.68C36.2101 99.68 17.8601 78.44 17.8601 52.34C17.8601 26.24 36.2101 5 58.7701 5ZM58.7701 0C33.4101 0 12.8601 23.43 12.8601 52.34C12.8601 81.25 33.4101 104.68 58.7701 104.68C84.1301 104.68 104.68 81.25 104.68 52.34C104.68 23.43 84.1201 0 58.7701 0Z" fill="#190F0A"/>
<path d="M67.3301 72.4C59.9101 72.4 55.3301 67.63 55.3301 59.86V58.95H64.9801V60.52C64.9801 62.88 65.6301 63.93 67.0401 63.93C68.7301 63.93 69.3101 62.49 69.3101 58.29C69.3101 54.09 68.6901 52.5 67.0301 52.5C65.7101 52.5 64.9801 53.46 64.9801 55.24V56.07H55.3301V32.27H77.6601V40.73H64.9801V48.24H65.1201C66.1901 46.27 68.3501 45.13 70.9901 45.13C76.3801 45.13 79.4201 49.85 79.4201 57.76C79.4201 67.12 75.1301 72.4 67.3401 72.4H67.3301Z" fill="#190F0A"/>
<path d="M43.6401 63.94C40.0601 63.32 38.1201 60.49 38.1201 55.7H43.8801C43.8801 58.14 44.2701 59.18 45.1901 59.18C45.8801 59.18 46.3501 58.6 46.3501 57.76C46.3501 56.41 45.0101 55.37 43.7801 54.45L42.9801 53.86C41.0801 52.44 38.2101 50.33 38.2101 46.56C38.2101 43.33 40.3401 40.96 43.6101 40.38L43.3101 36.73H47.1201L46.8201 40.4C50.2501 41.08 52.1601 43.96 52.1601 48.42H46.4001C46.4001 46.16 46.0001 45.14 45.1101 45.14C44.4801 45.14 44.0701 45.66 44.0701 46.43C44.0701 47.73 45.3401 48.65 46.4401 49.41L47.2401 49.96C49.2701 51.37 52.3201 53.44 52.3201 57.59C52.3201 61.02 50.2601 63.38 46.8801 63.95L47.1701 67.6H43.3601L43.6501 63.94H43.6401Z" fill="#190F0A"/>
</g>
<defs>
<clipPath id="clip0_4468_4382">
<rect width="104.68" height="104.68" fill="white"/>
</clipPath>
</defs>
</svg>
