<svg width="265" height="193" viewBox="0 0 265 193" fill="none" xmlns="http://www.w3.org/2000/svg">
<g clip-path="url(#clip0_4468_4459)">
<path d="M36.8101 44.4999L39.2301 15.3199C39.4201 13.0299 41.9401 11.7299 43.9201 12.8999L64.7701 25.2599" fill="#1CE585"/>
<path d="M39.3001 44.7099L34.3201 44.2999L36.7401 15.1199C36.9001 13.1799 38.0301 11.4899 39.7601 10.5999C41.4901 9.70995 43.5201 9.76995 45.2001 10.7599L66.0501 23.1199L63.5001 27.4199L42.6501 15.0599C42.4101 14.9199 42.2001 14.9699 42.0601 15.0399C41.9201 15.1099 41.7501 15.2499 41.7301 15.5299L39.3101 44.7099H39.3001Z" fill="#190F0A"/>
<path d="M160.14 139.74L167.47 188.39C167.6 189.27 168.35 189.91 169.24 189.92L195.15 190.07C196.04 190.07 196.81 189.42 196.94 188.54L204.2 139.75" fill="#1CE585"/>
<path d="M195.16 192.56H195.13L169.22 192.41C167.09 192.4 165.31 190.86 164.99 188.75L157.66 140.11L162.6 139.36L169.84 187.41L194.54 187.55L201.71 139.36L206.66 140.1L199.4 188.89C199.09 190.98 197.26 192.56 195.15 192.56H195.16Z" fill="#190F0A"/>
<path d="M39.4299 139.63L46.7599 188.28C46.8899 189.16 47.6399 189.8 48.5299 189.81L74.4399 189.96C75.3299 189.96 76.0999 189.31 76.2299 188.43L83.4899 139.64" fill="#1CE585"/>
<path d="M74.4499 192.45H74.4199L48.5099 192.3C46.3799 192.29 44.5999 190.75 44.2799 188.64L36.95 139.99L41.8899 139.24L49.13 187.29L73.83 187.43L81 139.24L85.9499 139.98L78.69 188.77C78.38 190.86 76.55 192.44 74.44 192.44L74.4499 192.45Z" fill="#190F0A"/>
<path d="M238.68 62.59C242.74 61 247.4 60.97 251.7 62.89C260.2 66.68 264.02 76.65 260.23 85.15C257.01 92.38 249.32 96.22 241.87 94.88" fill="#1CE585"/>
<path d="M244.87 97.6499C243.73 97.6499 242.58 97.5499 241.42 97.3399L242.31 92.4199C248.82 93.5899 255.25 90.1799 257.95 84.1299C261.17 76.8999 257.92 68.3999 250.69 65.1699C247.15 63.5899 243.21 63.4999 239.6 64.9199L237.77 60.2599C242.64 58.3499 247.95 58.4699 252.72 60.5999C262.47 64.9499 266.86 76.4099 262.51 86.1599C259.35 93.2399 252.39 97.6399 244.87 97.6399V97.6499Z" fill="#190F0A"/>
<path d="M133.76 175.62C197.764 175.62 249.65 136.866 249.65 89.06C249.65 41.2542 197.764 2.5 133.76 2.5C69.7558 2.5 17.8701 41.2542 17.8701 89.06C17.8701 136.866 69.7558 175.62 133.76 175.62Z" fill="#1CE585"/>
<path d="M133.76 178.11C68.4801 178.11 15.3701 138.16 15.3701 89.05C15.3701 39.94 68.4801 0 133.76 0C199.04 0 252.15 39.95 252.15 89.06C252.15 138.17 199.04 178.12 133.76 178.12V178.11ZM133.76 5C71.2401 5 20.3701 42.71 20.3701 89.06C20.3701 135.41 71.2401 173.12 133.76 173.12C196.28 173.12 247.15 135.41 247.15 89.06C247.15 42.71 196.28 5 133.76 5Z" fill="#190F0A"/>
<path d="M77.48 139.63L84.81 188.28C84.94 189.16 85.69 189.8 86.58 189.81L112.49 189.96C113.38 189.96 114.15 189.31 114.28 188.43L121.54 139.64" fill="#1CE585"/>
<path d="M112.5 192.45H112.47L86.56 192.3C84.43 192.29 82.65 190.75 82.33 188.64L75 139.99L79.94 139.24L87.18 187.29L111.88 187.43L119.05 139.24L124 139.98L116.74 188.77C116.43 190.86 114.6 192.44 112.49 192.44L112.5 192.45Z" fill="#190F0A"/>
<path d="M188.53 35.16C172.48 27.2 153.54 23 133.76 23C119.82 23 106.43 25.05 93.9501 29.09L90.5601 18.63C104.14 14.23 118.67 12 133.76 12C155.22 12 175.85 16.6 193.41 25.31L188.52 35.17L188.53 35.16Z" fill="#190F0A"/>
<path d="M18.95 120.18H30.12C39.2 120.18 46.57 108.28 46.57 93.59C46.57 78.9 39.21 67 30.12 67H18.95" fill="#1CE585"/>
<path d="M30.12 122.68H18.95V117.68H30.12C37.68 117.68 44.07 106.65 44.07 93.59C44.07 80.53 37.68 69.5 30.12 69.5H18.95V64.5H30.12C40.74 64.5 49.07 77.28 49.07 93.59C49.07 109.9 40.75 122.68 30.12 122.68Z" fill="#190F0A"/>
<path d="M198.19 139.74L205.52 188.39C205.65 189.27 206.4 189.91 207.29 189.92L233.2 190.07C234.09 190.07 234.86 189.42 234.99 188.54L249.77 89.1801" fill="#1CE585"/>
<path d="M233.21 192.56H233.18L207.27 192.41C205.14 192.4 203.36 190.86 203.04 188.75L195.71 140.1L200.65 139.35L207.89 187.4L232.59 187.54L247.28 88.78L252.23 89.52L237.45 188.88C237.14 190.97 235.31 192.55 233.2 192.55L233.21 192.56Z" fill="#190F0A"/>
<path d="M18.95 120.18C28.0351 120.18 35.4 108.275 35.4 93.59C35.4 78.9047 28.0351 67 18.95 67C9.86492 67 2.5 78.9047 2.5 93.59C2.5 108.275 9.86492 120.18 18.95 120.18Z" fill="#1CE585"/>
<path d="M18.95 122.68C8.33 122.68 0 109.9 0 93.59C0 77.28 8.32 64.5 18.95 64.5C29.58 64.5 37.9 77.28 37.9 93.59C37.9 109.9 29.58 122.68 18.95 122.68ZM18.95 69.5C11.39 69.5 5 80.53 5 93.59C5 106.65 11.39 117.68 18.95 117.68C26.51 117.68 32.9 106.65 32.9 93.59C32.9 80.53 26.51 69.5 18.95 69.5Z" fill="#190F0A"/>
<path d="M67 27.5L85.25 4.89003C86.91 2.83003 90.24 3.76003 90.59 6.38003L95.25 41.21" fill="#1CE585"/>
<path d="M92.7701 41.55L88.1101 6.71998C88.0801 6.49998 87.9501 6.34998 87.7401 6.28998C87.5201 6.22998 87.3401 6.28998 87.2001 6.45998L68.9501 29.07L65.0601 25.93L83.3101 3.31998C84.7201 1.57998 86.9301 0.869976 89.0901 1.46998C91.2501 2.06998 92.7701 3.82998 93.0701 6.04998L97.7301 40.88L92.7701 41.54V41.55Z" fill="#190F0A"/>
<path d="M52.5301 67.01C54.7171 67.01 56.4901 63.9029 56.4901 60.07C56.4901 56.2371 54.7171 53.13 52.5301 53.13C50.343 53.13 48.5701 56.2371 48.5701 60.07C48.5701 63.9029 50.343 67.01 52.5301 67.01Z" fill="#190F0A"/>
<path d="M23.56 109.16C20.17 99.74 20.15 87.44 23.56 78.02C26.97 87.44 26.95 99.74 23.56 109.16Z" fill="#190F0A"/>
<path d="M14.34 109.16C10.95 99.74 10.93 87.44 14.34 78.02C17.75 87.44 17.73 99.74 14.34 109.16Z" fill="#190F0A"/>
<path d="M36.1701 124.52C30.8801 124.52 27.1701 123.42 27.0801 123.39L28.5601 118.61C29.3401 118.85 47.8601 124.26 59.4801 107.21L63.6101 110.03C55.4001 122.08 44.0301 124.52 36.1601 124.52H36.1701Z" fill="#190F0A"/>
<path d="M62.9001 114.74C62.8201 114.48 60.9301 108.29 54.0601 108.11L54.1901 103.11C62.6901 103.33 66.7601 109.92 67.7201 113.38L62.9101 114.74H62.9001Z" fill="#190F0A"/>
</g>
<defs>
<clipPath id="clip0_4468_4459">
<rect width="264.19" height="192.56" fill="white"/>
</clipPath>
</defs>
</svg>
