<svg xmlns="http://www.w3.org/2000/svg" width="1302.906" height="224.831" viewBox="0 0 1302.906 224.831">
  <path id="Exclusion_5" data-name="Exclusion 5" d="M-6575.674,5628.424a125.23,125.23,0,0,1-22.047-1.943,118.409,118.409,0,0,1-20.758-5.7,111.525,111.525,0,0,1-18.954-9.248,105.657,105.657,0,0,1-16.646-12.6,102.234,102.234,0,0,1-13.832-15.755,102.452,102.452,0,0,1-10.507-18.712,114.164,114.164,0,0,1-9.015-45.486,113.742,113.742,0,0,1,9.093-45.53,103.3,103.3,0,0,1,10.578-18.755,103.356,103.356,0,0,1,13.893-15.807,106.912,106.912,0,0,1,16.683-12.654,112.159,112.159,0,0,1,18.945-9.293,117.65,117.65,0,0,1,20.68-5.728,122.993,122.993,0,0,1,21.889-1.956c25.107,0,47.668,5.636,67.057,16.753v58.631a84.869,84.869,0,0,0-29.163-14.833,104.051,104.051,0,0,0-28.952-4.153,71.138,71.138,0,0,0-22.853,3.558,55.137,55.137,0,0,0-17.666,9.764,50.627,50.627,0,0,0-12.055,14.61,53.794,53.794,0,0,0-6.028,18.1l-6.211.139h0l3.3.094,2.862.083a59.529,59.529,0,0,0-.588,8.375,58.469,58.469,0,0,0,3.83,21.171,50.738,50.738,0,0,0,10.666,16.9,48.383,48.383,0,0,0,16.271,11.2,52.827,52.827,0,0,0,20.642,4.054,49.75,49.75,0,0,0,21.236-4.747v-54.917c53.862,1.5,133.717,3.685,208.27,5.559a63.8,63.8,0,0,1-13.309,16.632,77.045,77.045,0,0,1-21.734,13.462l43.866,59.423v-89.3c21.129.527,41.622,1.022,60.908,1.471v101.829H-6397.7l-39.676-64.495h-1.4v64.495h-60.908v-18a134.137,134.137,0,0,1-16,9.539,126.753,126.753,0,0,1-17.884,7.355,129.528,129.528,0,0,1-19.942,4.738A144.4,144.4,0,0,1-6575.674,5628.424Zm363.778-5.3h-57.833v-101.7c21.849.5,41.306.92,57.833,1.243v100.458Zm100.911,0h-25.47l-67.336-100.3c25.3.475,43.776.716,54.906.716,3.672,0,6.6-.026,8.7-.079,1-.024,1.992-.04,2.944-.047l.791,1.156h.279v-1.16c10.41.005,18.951,1.118,25.386,3.307,5.077,1.727,8.848,4.118,11.208,7.108a12.434,12.434,0,0,1,2.675,6.28,8.937,8.937,0,0,1-.07,2.8Zm108.641,0h-105.424c6.208-13.9,18.339-40.936,29.818-65.871,5.8-12.6,12.11-21.7,18.752-27.045a25.45,25.45,0,0,1,7.287-4.238,14.88,14.88,0,0,1,4.967-.933,7.894,7.894,0,0,1,1.95.21l.009,0,33.142-2.5v45.378h11.735a66.478,66.478,0,0,0,21.438-3.281,45.411,45.411,0,0,0,16.387-9.564,41.786,41.786,0,0,0,10.463-15.425,56.542,56.542,0,0,0,3.68-20.87c0-.392,0-.717-.007-1.054l61.341-4.637c.088,1.867.132,3.781.132,5.69a106.729,106.729,0,0,1-8.487,42.773,93.674,93.674,0,0,1-23.783,32.853,107.1,107.1,0,0,1-36.565,21.075A143.086,143.086,0,0,1-6002.345,5623.121Zm-852.363-8.367h-59.079v-73.441H-6977.2v73.441h-59.079V5465.7h-37.4v149.051h-59.079V5465.7h-55.826v-53.387h211.38v75.61h63.414v-75.61h59.079v202.438Zm154.411-2h-138.8V5411.809h138.8V5464h-80.164V5488.2h72.094v47.345h-72.094v25.016h80.164v52.187Zm200.621-103.89v-94.3h74.32a136.448,136.448,0,0,1,35.882,4.393,80.7,80.7,0,0,1,28,13.37,60.108,60.108,0,0,1,18.2,22.636c4.307,9.311,6.491,20.141,6.491,32.19a68.386,68.386,0,0,1-2.442,18.106l-65.772,1.479a18.7,18.7,0,0,0,4.956-6.553,21.312,21.312,0,0,0,1.792-8.845,21.342,21.342,0,0,0-2.12-9.645,18.683,18.683,0,0,0-5.842-6.792c-4.819-3.494-11.63-5.34-19.7-5.34h-12.853V5507.5Zm612.553-.32h0c-22.885-.877-43.854-1.771-62.326-2.658a46.683,46.683,0,0,0-6.231-15.526,41.082,41.082,0,0,0-10.875-11.391,48.406,48.406,0,0,0-14.988-7.013,68.681,68.681,0,0,0-18.564-2.392h-11.735v32.577c-7.231-.6-12.649-1.192-16.1-1.745a44.435,44.435,0,0,1-14.8-4.718,19.807,19.807,0,0,1-7.208-6.583,15.166,15.166,0,0,1-2.3-7.835,13.046,13.046,0,0,1,.4-3.511v-.005l12.212-63.179h37.3a143.762,143.762,0,0,1,44.438,6.675,109.372,109.372,0,0,1,35.423,18.959,94.565,94.565,0,0,1,24.3,29.636,102.193,102.193,0,0,1,11.061,38.709Zm-449.1-3.35v-90.63h60.908v89.261Zm66.5-1.5h0v-89.135h58.113l59.106,86.5Zm152.267-2.939a31.213,31.213,0,0,1-5.118-.364l-13.6.3v-86.136h89.87c-9.66,20.314-18.691,39.19-26.118,54.588-5.912,12.253-13.966,21.122-23.938,26.361A45.519,45.519,0,0,1-6117.463,5500.759Zm207.971-77.6h-2.34v-18.564h3.379l5.851,15.6,5.876-15.6h3.379v18.563h-2.34v-15.445h-.052l-5.8,15.445h-2.107l-5.8-15.445h-.052v15.445Zm-10.633,0h-2.472v-16.486h-6.188v-2.079h14.846v2.079h-6.186v16.485Z" transform="translate(7189.082 -5404.094)" fill="#e8e8e8" stroke="rgba(0,0,0,0)" stroke-miterlimit="10" stroke-width="1" style="mix-blend-mode: difference;isolation: isolate"/>
</svg>
