<svg width="200" height="190" viewBox="0 0 200 190" fill="none" xmlns="http://www.w3.org/2000/svg">
<path d="M0 84.0473C3.37979 82.9227 9.72978 83.276 13.4927 83.2784L39.9215 83.2903C41.5484 83.2911 53.7047 83.7532 53.9289 82.5065C54.8377 77.4534 54.484 71.2145 54.477 65.9997L54.4605 22.8337L54.4609 9.6919C54.4619 7.33804 54.4723 5.02767 54.5574 2.67491C54.6883 -0.931749 59.0014 0.152079 61.7264 0.154775L73.8537 0.144716C81.8645 0.13538 89.934 0.0985836 97.9484 0.161904C99.1107 0.171084 100.098 0.350302 101.206 0.713798C101.617 4.00284 101.491 8.14581 101.482 11.5297L101.441 27.3682C101.443 29.9885 101.35 34.052 101.764 36.5053C106.312 39.3717 108.588 39.5092 113.696 40.9216C115.81 41.5057 118.387 43.7018 120.778 43.9368C123.637 44.4462 126.613 43.9155 129.428 44.6633C130.903 45.0553 131.875 47.7895 132.844 48.1153C134.29 48.601 137.238 47.479 138.708 47.4798C141.367 47.4809 144.78 47.6516 147.395 48.0561C152.158 48.793 154.722 52.8766 159.695 51.7428C164.696 50.6028 171.265 47.288 176.254 48.453C177.444 48.7309 181.422 50.352 182.78 50.9124C185.352 51.9741 188.393 52.8202 190.726 54.252C191.411 54.6729 192.154 55.1749 192.31 55.9954C192.673 57.9092 192.558 60.1909 192.555 62.1614L192.533 74.6657C192.53 76.8134 192.384 81.7272 192.889 83.5641C193.595 86.1364 195.705 89.7675 196.809 92.3589C197.416 93.7856 198.926 97.8569 200 98.7229V103.202C198.959 105.679 197.4 114.256 197.014 116.951C195.811 125.334 195.689 124.1 189.232 128.106C182.677 132.202 176.049 136.181 169.352 140.041C165.324 142.388 159.023 145.473 155.643 148.545C153.391 150.591 150.117 155.275 148.115 157.849C146.462 159.974 144.301 162.308 143.072 164.7C140.555 169.601 145.921 183.957 143.955 188.442C143.708 189.006 143.289 189.56 142.687 189.766C139.509 190.848 130.643 186.258 127.517 184.982C123.386 183.295 119.258 181.786 115.232 179.829C113.979 177.498 111.657 170.633 110.961 167.935C109.725 162.277 104.928 156.651 100.789 152.539C94.7836 146.571 93.8748 140.368 89.6113 133.387C88.3693 131.353 79.2727 122.984 76.6748 122.887C72.3348 122.725 65.8178 122.716 61.5086 123.767C59.5598 124.239 57.7918 131.493 56.4033 133.038C55.2041 134.418 54.3492 134.925 52.8732 135.976C49.227 135.231 41.7543 131.78 38.4012 129.692C36.5402 128.533 31.9859 123.639 31.0469 121.402C29.7477 118.306 29.0285 114.18 26.9061 111.432C24.7967 108.7 22.1594 105.334 19.623 102.992C17.6114 101.136 14.7929 99.2966 12.8516 97.3452C9.26301 93.7378 5.84043 89.921 1.86481 86.7258C1.06869 86.086 1.05503 85.7542 0 85.0331V84.0473Z" fill="#FEFEFE"/>
</svg>
