<svg width="105" height="105" viewBox="0 0 105 105" fill="none" xmlns="http://www.w3.org/2000/svg">
<g clip-path="url(#clip0_4468_4406)">
<path d="M45.91 102.18C21.98 102.18 2.5 79.82 2.5 52.34C2.5 24.86 21.97 2.5 45.91 2.5C69.85 2.5 89.32 24.86 89.32 52.34C89.32 79.82 69.85 102.18 45.91 102.18Z" fill="#FFEC00"/>
<path d="M45.91 5C68.47 5 86.82 26.24 86.82 52.34C86.82 78.44 68.47 99.68 45.91 99.68C23.35 99.68 5 78.44 5 52.34C5 26.24 23.35 5 45.91 5ZM45.91 0C20.55 0 0 23.43 0 52.34C0 81.25 20.55 104.68 45.91 104.68C71.27 104.68 91.82 81.25 91.82 52.34C91.82 23.43 71.26 0 45.91 0Z" fill="#401011"/>
<path d="M35.8899 34.89H2.92993V39.89H35.8899V34.89Z" fill="#401011"/>
<path d="M43.25 19.9399H10.29V24.9399H43.25V19.9399Z" fill="#401011"/>
<path d="M53.49 9.96997H20.53V14.97H53.49V9.96997Z" fill="#401011"/>
<path d="M60.26 4.97998H27.3V9.97998H60.26V4.97998Z" fill="#401011"/>
<path d="M35.8899 64.79H2.92993V69.79H35.8899V64.79Z" fill="#401011"/>
<path d="M43.25 79.74H10.29V84.74H43.25V79.74Z" fill="#401011"/>
<path d="M53.49 89.71H20.53V94.71H53.49V89.71Z" fill="#401011"/>
<path d="M60.26 94.6899H27.3V99.6899H60.26V94.6899Z" fill="#401011"/>
<path d="M58.7699 0H45.9099V5H58.7699V0Z" fill="#190F0A"/>
<path d="M58.7699 0H45.9099V14.97H58.7699V0Z" fill="#190F0A"/>
<path d="M58.7699 99.6801H45.9099V104.68H58.7699V99.6801Z" fill="#190F0A"/>
<path d="M58.7699 89.71H45.9099V104.68H58.7699V89.71Z" fill="#190F0A"/>
<path d="M58.7701 102.18C34.8301 102.18 15.3601 79.82 15.3601 52.34C15.3601 24.86 34.8301 2.5 58.7701 2.5C82.7101 2.5 102.18 24.86 102.18 52.34C102.18 79.82 82.7101 102.18 58.7701 102.18Z" fill="#FFEC00"/>
<path d="M58.7701 5C81.3301 5 99.6801 26.24 99.6801 52.34C99.6801 78.44 81.3301 99.68 58.7701 99.68C36.2101 99.68 17.8601 78.44 17.8601 52.34C17.8601 26.24 36.2101 5 58.7701 5ZM58.7701 0C33.4101 0 12.8601 23.43 12.8601 52.34C12.8601 81.25 33.4101 104.68 58.7701 104.68C84.1301 104.68 104.68 81.25 104.68 52.34C104.68 23.43 84.1201 0 58.7701 0Z" fill="#401011"/>
<path d="M59.3498 63.54H63.2498V72H45.2498V63.54H49.1698V45.09H44.0698V37.05H45.3398C49.4398 37.05 50.5798 36.2 50.5798 32.27H59.3498V63.55V63.54Z" fill="#401011"/>
<path d="M76.6599 31.85C84.5699 31.85 89.6499 39.8 89.6499 52.33C89.6499 64.86 84.5599 72.81 76.6599 72.81C68.7599 72.81 63.6699 64.86 63.6699 52.33C63.6699 39.8 68.7599 31.85 76.6599 31.85ZM76.6599 64.37C78.3499 64.37 78.9299 62.17 78.9299 52.34C78.9299 42.51 78.3499 40.31 76.6599 40.31C74.9699 40.31 74.3899 42.51 74.3899 52.34C74.3899 62.17 74.9499 64.37 76.6599 64.37Z" fill="#401011"/>
<path d="M33.3999 64.11C29.8199 63.49 27.8799 60.66 27.8799 55.87H33.6399C33.6399 58.31 34.0299 59.35 34.9499 59.35C35.6399 59.35 36.1099 58.77 36.1099 57.93C36.1099 56.58 34.7699 55.54 33.5399 54.62L32.7399 54.03C30.8399 52.61 27.9699 50.5 27.9699 46.73C27.9699 43.5 30.0999 41.13 33.3699 40.55L33.0699 36.9H36.8799L36.5799 40.57C40.0099 41.25 41.9199 44.13 41.9199 48.59H36.1599C36.1599 46.33 35.7599 45.31 34.8699 45.31C34.2399 45.31 33.8299 45.83 33.8299 46.6C33.8299 47.9 35.0999 48.82 36.1999 49.58L36.9999 50.13C39.0299 51.54 42.0799 53.61 42.0799 57.76C42.0799 61.19 40.0199 63.55 36.6399 64.12L36.9299 67.77H33.1199L33.4099 64.11H33.3999Z" fill="#401011"/>
</g>
<defs>
<clipPath id="clip0_4468_4406">
<rect width="104.68" height="104.68" fill="white"/>
</clipPath>
</defs>
</svg>
