<svg width="265" height="196" viewBox="0 0 265 196" fill="none" xmlns="http://www.w3.org/2000/svg">
<g clip-path="url(#clip0_4501_4213)">
<path d="M175.16 133.53L165.41 181.75C165.23 182.62 165.72 183.48 166.55 183.79L190.84 192.79C191.68 193.1 192.62 192.75 193.05 191.96L216.55 148.6" fill="#1CE585"/>
<path d="M191.46 195.4C190.97 195.4 190.47 195.31 189.98 195.14L165.69 186.14C163.69 185.4 162.55 183.35 162.97 181.26L172.72 133.04L177.62 134.03L167.99 181.66L191.15 190.24L214.36 147.41L218.76 149.79L195.26 193.15C194.49 194.56 193.01 195.4 191.47 195.4H191.46Z" fill="#190F0A"/>
<path d="M50.7 148.68L74.23 191.88C74.65 192.66 75.58 193.01 76.41 192.71L100.8 183.99C101.64 183.69 102.14 182.81 101.96 181.94L92.0899 133.61" fill="#1CE585"/>
<path d="M75.79 195.33C74.26 195.33 72.8 194.51 72.03 193.08L48.5 149.88L52.89 147.49L76.13 190.17L99.39 181.85L89.64 134.12L94.54 133.12L104.41 181.45C104.84 183.53 103.65 185.64 101.65 186.36L77.26 195.08C76.78 195.25 76.28 195.34 75.8 195.34L75.79 195.33Z" fill="#190F0A"/>
<path d="M36.8101 44.4999L39.2301 15.3199C39.4201 13.0299 41.9401 11.7299 43.9201 12.8999L64.7701 25.2599" fill="#1CE585"/>
<path d="M39.3001 44.7099L34.3201 44.2999L36.7401 15.1199C36.9001 13.1799 38.0301 11.4899 39.7601 10.5999C41.4901 9.70995 43.5201 9.76995 45.2001 10.7599L66.0501 23.1199L63.5001 27.4199L42.6501 15.0599C42.4101 14.9199 42.2001 14.9699 42.0601 15.0399C41.9201 15.1099 41.7501 15.2499 41.7301 15.5299L39.3101 44.7099H39.3001Z" fill="#190F0A"/>
<path d="M238.68 62.59C242.74 61 247.4 60.97 251.7 62.89C260.2 66.68 264.02 76.65 260.23 85.15C257.01 92.38 249.32 96.22 241.87 94.88" fill="#1CE585"/>
<path d="M244.87 97.6499C243.73 97.6499 242.58 97.5499 241.42 97.3399L242.31 92.4199C248.82 93.5899 255.25 90.1799 257.95 84.1299C261.17 76.8999 257.92 68.3999 250.69 65.1699C247.15 63.5899 243.21 63.4999 239.6 64.9199L237.77 60.2599C242.64 58.3499 247.95 58.4699 252.72 60.5999C262.47 64.9499 266.86 76.4099 262.51 86.1599C259.35 93.2399 252.39 97.6399 244.87 97.6399V97.6499Z" fill="#190F0A"/>
<path d="M133.76 175.62C197.764 175.62 249.65 136.866 249.65 89.06C249.65 41.2542 197.764 2.5 133.76 2.5C69.7558 2.5 17.8701 41.2542 17.8701 89.06C17.8701 136.866 69.7558 175.62 133.76 175.62Z" fill="#1CE585"/>
<path d="M133.76 178.11C68.4801 178.11 15.3701 138.16 15.3701 89.05C15.3701 39.94 68.4801 0 133.76 0C199.04 0 252.15 39.95 252.15 89.06C252.15 138.17 199.04 178.12 133.76 178.12V178.11ZM133.76 5C71.2401 5 20.3701 42.71 20.3701 89.06C20.3701 135.41 71.2401 173.12 133.76 173.12C196.28 173.12 247.15 135.41 247.15 89.06C247.15 42.71 196.28 5 133.76 5Z" fill="#190F0A"/>
<path d="M188.53 35.16C172.48 27.2 153.54 23 133.76 23C119.82 23 106.43 25.05 93.9501 29.09L90.5601 18.63C104.14 14.23 118.67 12 133.76 12C155.22 12 175.85 16.6 193.41 25.31L188.52 35.17L188.53 35.16Z" fill="#190F0A"/>
<path d="M18.95 120.18H30.12C39.2 120.18 46.57 108.28 46.57 93.59C46.57 78.9 39.21 67 30.12 67H18.95" fill="#1CE585"/>
<path d="M30.12 122.68H18.95V117.68H30.12C37.68 117.68 44.07 106.65 44.07 93.59C44.07 80.53 37.68 69.5 30.12 69.5H18.95V64.5H30.12C40.74 64.5 49.07 77.28 49.07 93.59C49.07 109.9 40.75 122.68 30.12 122.68Z" fill="#190F0A"/>
<path d="M18.95 120.18C28.0351 120.18 35.4 108.275 35.4 93.59C35.4 78.9047 28.0351 67 18.95 67C9.86492 67 2.5 78.9047 2.5 93.59C2.5 108.275 9.86492 120.18 18.95 120.18Z" fill="#1CE585"/>
<path d="M18.95 122.68C8.33 122.68 0 109.9 0 93.59C0 77.28 8.32 64.5 18.95 64.5C29.58 64.5 37.9 77.28 37.9 93.59C37.9 109.9 29.58 122.68 18.95 122.68ZM18.95 69.5C11.39 69.5 5 80.53 5 93.59C5 106.65 11.39 117.68 18.95 117.68C26.51 117.68 32.9 106.65 32.9 93.59C32.9 80.53 26.51 69.5 18.95 69.5Z" fill="#190F0A"/>
<path d="M67 27.5L85.25 4.89003C86.91 2.83003 90.24 3.76003 90.59 6.38003L95.25 41.21" fill="#1CE585"/>
<path d="M92.7701 41.55L88.1101 6.71998C88.0801 6.49998 87.9501 6.34998 87.7401 6.28998C87.5201 6.22998 87.3401 6.28998 87.2001 6.45998L68.9501 29.07L65.0601 25.93L83.3101 3.31998C84.7201 1.57998 86.9301 0.869976 89.0901 1.46998C91.2501 2.06998 92.7701 3.82998 93.0701 6.04998L97.7301 40.88L92.7701 41.54V41.55Z" fill="#190F0A"/>
<path d="M52.5301 67.01C54.7171 67.01 56.4901 63.9029 56.4901 60.07C56.4901 56.2371 54.7171 53.13 52.5301 53.13C50.343 53.13 48.5701 56.2371 48.5701 60.07C48.5701 63.9029 50.343 67.01 52.5301 67.01Z" fill="#190F0A"/>
<path d="M23.56 109.16C20.17 99.74 20.15 87.44 23.56 78.02C26.97 87.44 26.95 99.74 23.56 109.16Z" fill="#190F0A"/>
<path d="M14.34 109.16C10.95 99.74 10.93 87.44 14.34 78.02C17.75 87.44 17.73 99.74 14.34 109.16Z" fill="#190F0A"/>
<path d="M86.1899 133.61L76.4399 181.83C76.2599 182.7 76.7499 183.56 77.5799 183.87L101.87 192.87C102.71 193.18 103.65 192.83 104.08 192.04L127.58 148.68" fill="#1CE585"/>
<path d="M102.48 195.48C101.99 195.48 101.49 195.39 101 195.22L76.7099 186.22C74.7099 185.48 73.5699 183.43 73.9899 181.34L83.7399 133.12L88.6399 134.11L79.0099 181.74L102.17 190.32L125.38 147.49L129.78 149.87L106.28 193.23C105.51 194.64 104.03 195.48 102.49 195.48H102.48Z" fill="#190F0A"/>
<path d="M206.16 148.55L229.69 191.75C230.11 192.53 231.04 192.88 231.87 192.58L256.26 183.86C257.1 183.56 257.6 182.68 257.42 181.81L237.32 83.39" fill="#1CE585"/>
<path d="M231.25 195.2C229.72 195.2 228.26 194.37 227.49 192.95L203.96 149.75L208.35 147.36L231.59 190.04L254.85 181.72L234.87 83.89L239.77 82.89L259.87 181.31C260.29 183.39 259.11 185.5 257.11 186.22L232.72 194.94C232.24 195.11 231.74 195.2 231.26 195.2H231.25Z" fill="#190F0A"/>
<path d="M34.4899 124.52C29.1999 124.52 25.4999 123.42 25.3999 123.39L26.8799 118.61C27.6599 118.85 46.1799 124.26 57.7999 107.21L61.9299 110.03C53.7199 122.08 42.3499 124.52 34.4799 124.52H34.4899Z" fill="#190F0A"/>
<path d="M61.2299 114.74C61.1499 114.48 59.2599 108.29 52.3899 108.11L52.5199 103.11C61.0199 103.33 65.0899 109.92 66.0499 113.38L61.2399 114.74H61.2299Z" fill="#190F0A"/>
</g>
<defs>
<clipPath id="clip0_4501_4213">
<rect width="264.19" height="195.48" fill="white"/>
</clipPath>
</defs>
</svg>
