<svg width="266" height="193" viewBox="0 0 266 193" fill="none" xmlns="http://www.w3.org/2000/svg">
<path d="M37.72 44.5099L40.14 15.3299C40.33 13.0399 42.85 11.7399 44.83 12.9099L65.68 25.2699" fill="#1CE585"/>
<path d="M40.21 44.71L35.23 44.2999L37.65 15.1199C37.81 13.1799 38.94 11.4899 40.67 10.5999C42.4 9.70995 44.43 9.76995 46.11 10.7599L66.96 23.12L64.41 27.4199L43.56 15.06C43.32 14.92 43.11 14.9699 42.97 15.0399C42.83 15.1099 42.66 15.2499 42.64 15.5299L40.22 44.71H40.21Z" fill="#190F0A"/>
<path d="M161.05 139.75L168.38 188.4C168.51 189.28 169.26 189.92 170.15 189.93L196.06 190.08C196.95 190.08 197.72 189.43 197.85 188.55L205.11 139.76" fill="#1CE585"/>
<path d="M196.07 192.57H196.04L170.13 192.42C168 192.41 166.22 190.87 165.9 188.76L158.57 140.12L163.51 139.37L170.75 187.42L195.45 187.56L202.62 139.37L207.57 140.11L200.31 188.9C200 190.99 198.17 192.57 196.06 192.57H196.07Z" fill="#190F0A"/>
<path d="M40.3401 139.64L47.6701 188.29C47.8001 189.17 48.5501 189.81 49.4401 189.82L75.3501 189.97C76.2401 189.97 77.0101 189.32 77.1401 188.44L84.4001 139.65" fill="#1CE585"/>
<path d="M75.3601 192.46H75.3301L49.4201 192.31C47.2901 192.3 45.5101 190.76 45.1901 188.65L37.8601 140L42.8001 139.25L50.0401 187.3L74.7401 187.44L81.9101 139.25L86.8601 139.99L79.6001 188.78C79.2901 190.87 77.4601 192.45 75.3501 192.45L75.3601 192.46Z" fill="#190F0A"/>
<path d="M239.59 62.6C243.65 61.01 248.31 60.98 252.61 62.9C261.11 66.69 264.93 76.66 261.14 85.16C257.92 92.39 250.23 96.23 242.78 94.89" fill="#1CE585"/>
<path d="M245.78 97.65C244.64 97.65 243.49 97.5499 242.33 97.3399L243.22 92.4199C249.73 93.5899 256.16 90.1799 258.86 84.1299C262.08 76.8999 258.83 68.3999 251.6 65.1699C248.06 63.5899 244.12 63.4999 240.51 64.9199L238.68 60.2599C243.55 58.3499 248.86 58.47 253.63 60.6C263.38 64.95 267.77 76.4099 263.42 86.1599C260.26 93.2399 253.3 97.6399 245.78 97.6399V97.65Z" fill="#190F0A"/>
<path d="M134.67 175.62C198.674 175.62 250.56 136.866 250.56 89.06C250.56 41.2542 198.674 2.5 134.67 2.5C70.6657 2.5 18.78 41.2542 18.78 89.06C18.78 136.866 70.6657 175.62 134.67 175.62Z" fill="#1CE585"/>
<path d="M134.67 178.12C69.39 178.12 16.28 138.17 16.28 89.06C16.28 39.95 69.39 0 134.67 0C199.95 0 253.06 39.95 253.06 89.06C253.06 138.17 199.95 178.12 134.67 178.12ZM134.67 5.01C72.15 5.01 21.28 42.72 21.28 89.07C21.28 135.42 72.15 173.13 134.67 173.13C197.19 173.13 248.06 135.42 248.06 89.07C248.06 42.72 197.19 5.01 134.67 5.01Z" fill="#190F0A"/>
<path d="M78.3901 139.64L85.7201 188.29C85.8501 189.17 86.6001 189.81 87.4901 189.82L113.4 189.97C114.29 189.97 115.06 189.32 115.19 188.44L122.45 139.65" fill="#1CE585"/>
<path d="M113.41 192.46H113.38L87.4702 192.31C85.3402 192.3 83.5602 190.76 83.2402 188.65L75.9102 140L80.8502 139.25L88.0902 187.3L112.79 187.44L119.96 139.25L124.91 139.99L117.65 188.78C117.34 190.87 115.51 192.45 113.4 192.45L113.41 192.46Z" fill="#190F0A"/>
<path d="M189.44 35.17C173.39 27.21 154.45 23.01 134.67 23.01C120.73 23.01 107.34 25.06 94.86 29.1L91.47 18.64C105.05 14.24 119.58 12.01 134.67 12.01C156.13 12.01 176.76 16.61 194.32 25.32L189.43 35.18L189.44 35.17Z" fill="#190F0A"/>
<path d="M199.1 139.75L206.43 188.4C206.56 189.28 207.31 189.92 208.2 189.93L234.11 190.08C235 190.08 235.77 189.43 235.9 188.55L250.68 89.1899" fill="#1CE585"/>
<path d="M234.12 192.57H234.09L208.18 192.42C206.05 192.41 204.27 190.87 203.95 188.76L196.62 140.12L201.56 139.37L208.8 187.42L233.5 187.56L248.19 88.7999L253.14 89.5399L238.36 188.9C238.05 190.99 236.22 192.57 234.11 192.57H234.12Z" fill="#190F0A"/>
<path d="M67.9199 27.5L86.1699 4.89003C87.8299 2.83003 91.1599 3.76003 91.5099 6.38003L96.1699 41.21" fill="#1CE585"/>
<path d="M93.68 41.55L89.02 6.71998C88.99 6.49998 88.86 6.34998 88.65 6.28998C88.43 6.22998 88.25 6.28997 88.11 6.45997L69.86 29.07L65.97 25.93L84.22 3.31997C85.63 1.57997 87.84 0.869976 90 1.46998C92.16 2.06998 93.68 3.82998 93.98 6.04998L98.64 40.88L93.68 41.54V41.55Z" fill="#190F0A"/>
<path d="M18.95 120.19H30.12C39.2 120.19 46.57 108.29 46.57 93.5999C46.57 78.9099 39.21 67.0099 30.12 67.0099H18.95" fill="#1CE585"/>
<path d="M30.12 122.69H18.95V117.69H30.12C37.68 117.69 44.07 106.66 44.07 93.5999C44.07 80.5399 37.68 69.5099 30.12 69.5099H18.95V64.5099H30.12C40.74 64.5099 49.07 77.2899 49.07 93.5999C49.07 109.91 40.75 122.69 30.12 122.69Z" fill="#190F0A"/>
<path d="M18.95 120.19C28.0351 120.19 35.4 108.285 35.4 93.5999C35.4 78.9146 28.0351 67.0099 18.95 67.0099C9.86492 67.0099 2.5 78.9146 2.5 93.5999C2.5 108.285 9.86492 120.19 18.95 120.19Z" fill="#1CE585"/>
<path d="M18.95 122.69C8.33 122.69 0 109.91 0 93.5999C0 77.2899 8.32 64.5099 18.95 64.5099C29.58 64.5099 37.9 77.2899 37.9 93.5999C37.9 109.91 29.58 122.69 18.95 122.69ZM18.95 69.5099C11.39 69.5099 5 80.5399 5 93.5999C5 106.66 11.39 117.69 18.95 117.69C26.51 117.69 32.9 106.66 32.9 93.5999C32.9 80.5399 26.51 69.5099 18.95 69.5099Z" fill="#190F0A"/>
<path d="M23.56 109.17C20.17 99.7499 20.15 87.4499 23.56 78.0299C26.97 87.4399 26.95 99.7499 23.56 109.17Z" fill="#190F0A"/>
<path d="M14.34 109.17C10.95 99.7499 10.93 87.4499 14.34 78.0299C17.75 87.4399 17.73 99.7499 14.34 109.17Z" fill="#190F0A"/>
<path d="M28.2401 122.44C40.5901 122.17 53.1901 118.23 62.2601 109.61C65.3201 106.77 67.8501 103.48 70.2301 100.05L71.7201 100.87C80.3301 119.1 61.8801 137.91 43.3401 134.31C38.1901 133.35 33.1301 130.55 29.7101 126.38C29.1601 125.63 28.6301 125 28.1401 124.15L28.2501 122.45L28.2401 122.44Z" fill="#190F0A"/>
<path d="M26.9899 126.03L26.6699 121.04L29.1699 120.88C40.1299 120.18 59.9999 115.65 69.9699 93.13L70.9799 90.84L75.5499 92.86L74.5399 95.15C63.0899 121.02 39.2199 125.25 29.4799 125.87L26.9799 126.03H26.9899Z" fill="#190F0A"/>
<path d="M43.6001 61.61V61.74C43.6001 57.04 47.4101 53.24 52.1001 53.24C56.8001 53.24 60.6001 57.05 60.6001 61.74V61.61" fill="#1CE585"/>
<path d="M63.1001 61.75H58.1001C58.1001 58.44 55.4101 55.75 52.1001 55.75C48.7901 55.75 46.1001 58.44 46.1001 61.75H41.1001V61.62C41.1701 55.62 46.0801 50.75 52.1001 50.75C58.1201 50.75 63.0301 55.61 63.1001 61.62V61.75Z" fill="#190F0A"/>
<path d="M54.3101 127.42L63.3101 134.55C66.9801 137.48 72.3301 136.88 75.2601 133.21C78.1901 129.54 77.5901 124.19 73.9201 121.26L61.5001 111.39L57.4901 114.27C53.3201 117.26 51.9701 122.85 54.3101 127.42Z" fill="#1CE585"/>
<path d="M68.61 138.91C66.2 138.91 63.78 138.13 61.76 136.51L52.34 129.04L52.09 128.56C49.17 122.85 50.83 115.98 56.04 112.24L61.58 108.26L75.48 119.3C80.23 123.09 81.01 130.03 77.22 134.77C75.05 137.49 71.84 138.91 68.61 138.91ZM56.32 125.83L64.87 132.6C67.47 134.67 71.25 134.25 73.32 131.66C75.39 129.07 74.96 125.28 72.37 123.22L61.43 114.53L58.96 116.31C55.91 118.5 54.85 122.44 56.33 125.83H56.32Z" fill="#190F0A"/>
<path d="M56.2464 115.219L53.2471 119.219L63.2324 126.706L66.2317 122.705L56.2464 115.219Z" fill="#190F0A"/>
</svg>
